 0
SECTION
 2
HEADER
 9
$ACADVER
 1
AC1009
 0
ENDSEC
 0
SECTION
 2
ENTITIES
 0
POLYLINE
 8
TITLE
 66
1
 70
1
 10
0.0
 20
0.0
 30
0.0
 0
VERTEX
 8
TITLE
 10
 -0.1000
 20
  0.1000
 30
0.0
 0
VERTEX
 8
TITLE
 10
  9.6000
 20
  0.1000
 30
0.0
 0
VERTEX
 8
TITLE
 10
  9.6000
 20
  7.3000
 30
0.0
 0
VERTEX
 8
TITLE
 10
 -0.1000
 20
  7.3000
 30
0.0
 0
SEQEND
 8
TITLE
 0
POLYLINE
 8
TITLE
 66
1
 70
1
 10
0.0
 20
0.0
 30
0.0
 0
VERTEX
 8
TITLE
 10
  0.0000
 20
  0.2000
 30
0.0
 0
VERTEX
 8
TITLE
 10
  9.5000
 20
  0.2000
 30
0.0
 0
VERTEX
 8
TITLE
 10
  9.5000
 20
  7.2000
 30
0.0
 0
VERTEX
 8
TITLE
 10
  0.0000
 20
  7.2000
 30
0.0
 0
SEQEND
 8
TITLE
 0
POLYLINE
 8
TITLE
 66
1
 10
0.0
 20
0.0
 30
0.0
 0
VERTEX
 8
TITLE
 10
  2.0600
 20
  0.2000
 30
0.0
 0
VERTEX
 8
TITLE
 10
  2.0600
 20
  0.1000
 30
0.0
 0
SEQEND
 8
TITLE
 0
POLYLINE
 8
TITLE
 66
1
 10
0.0
 20
0.0
 30
0.0
 0
VERTEX
 8
TITLE
 10
  2.0600
 20
  7.2000
 30
0.0
 0
VERTEX
 8
TITLE
 10
  2.0600
 20
  7.3000
 30
0.0
 0
SEQEND
 8
TITLE
 0
POLYLINE
 8
TITLE
 66
1
 10
0.0
 20
0.0
 30
0.0
 0
VERTEX
 8
TITLE
 10
  3.9200
 20
  0.2000
 30
0.0
 0
VERTEX
 8
TITLE
 10
  3.9200
 20
  0.1000
 30
0.0
 0
SEQEND
 8
TITLE
 0
POLYLINE
 8
TITLE
 66
1
 10
0.0
 20
0.0
 30
0.0
 0
VERTEX
 8
TITLE
 10
  3.9200
 20
  7.2000
 30
0.0
 0
VERTEX
 8
TITLE
 10
  3.9200
 20
  7.3000
 30
0.0
 0
SEQEND
 8
TITLE
 0
POLYLINE
 8
TITLE
 66
1
 10
0.0
 20
0.0
 30
0.0
 0
VERTEX
 8
TITLE
 10
  5.7800
 20
  0.2000
 30
0.0
 0
VERTEX
 8
TITLE
 10
  5.7800
 20
  0.1000
 30
0.0
 0
SEQEND
 8
TITLE
 0
POLYLINE
 8
TITLE
 66
1
 10
0.0
 20
0.0
 30
0.0
 0
VERTEX
 8
TITLE
 10
  5.7800
 20
  7.2000
 30
0.0
 0
VERTEX
 8
TITLE
 10
  5.7800
 20
  7.3000
 30
0.0
 0
SEQEND
 8
TITLE
 0
POLYLINE
 8
TITLE
 66
1
 10
0.0
 20
0.0
 30
0.0
 0
VERTEX
 8
TITLE
 10
  7.6400
 20
  0.2000
 30
0.0
 0
VERTEX
 8
TITLE
 10
  7.6400
 20
  0.1000
 30
0.0
 0
SEQEND
 8
TITLE
 0
POLYLINE
 8
TITLE
 66
1
 10
0.0
 20
0.0
 30
0.0
 0
VERTEX
 8
TITLE
 10
  7.6400
 20
  7.2000
 30
0.0
 0
VERTEX
 8
TITLE
 10
  7.6400
 20
  7.3000
 30
0.0
 0
SEQEND
 8
TITLE
 0
TEXT
 8
TITLE
 10
  1.1300
 20
  0.1200
 30
0.0
 40
  0.0500
 1
5
 0
TEXT
 8
TITLE
 10
  1.1300
 20
  7.2200
 30
0.0
 40
  0.0500
 1
5
 0
TEXT
 8
TITLE
 10
  2.9900
 20
  0.1200
 30
0.0
 40
  0.0500
 1
4
 0
TEXT
 8
TITLE
 10
  2.9900
 20
  7.2200
 30
0.0
 40
  0.0500
 1
4
 0
TEXT
 8
TITLE
 10
  4.8500
 20
  0.1200
 30
0.0
 40
  0.0500
 1
3
 0
TEXT
 8
TITLE
 10
  4.8500
 20
  7.2200
 30
0.0
 40
  0.0500
 1
3
 0
TEXT
 8
TITLE
 10
  6.7100
 20
  0.1200
 30
0.0
 40
  0.0500
 1
2
 0
TEXT
 8
TITLE
 10
  6.7100
 20
  7.2200
 30
0.0
 40
  0.0500
 1
2
 0
TEXT
 8
TITLE
 10
  8.5700
 20
  0.1200
 30
0.0
 40
  0.0500
 1
1
 0
TEXT
 8
TITLE
 10
  8.5700
 20
  7.2200
 30
0.0
 40
  0.0500
 1
1
 0
POLYLINE
 8
TITLE
 66
1
 10
0.0
 20
0.0
 30
0.0
 0
VERTEX
 8
TITLE
 10
 -0.1000
 20
  5.3000
 30
0.0
 0
VERTEX
 8
TITLE
 10
  0.0000
 20
  5.3000
 30
0.0
 0
SEQEND
 8
TITLE
 0
POLYLINE
 8
TITLE
 66
1
 10
0.0
 20
0.0
 30
0.0
 0
VERTEX
 8
TITLE
 10
  9.5000
 20
  5.3000
 30
0.0
 0
VERTEX
 8
TITLE
 10
  9.6000
 20
  5.3000
 30
0.0
 0
SEQEND
 8
TITLE
 0
SOLID
 8
TITLE
 10
  0.0000
 20
  3.6000
 30
0.0
 11
 -0.0500
 21
  3.6200
 31
0.0
 12
 -0.0500
 22
  3.5800
 32
0.0
 13
 -0.0500
 23
  3.6000
 33
0.0
 0
SOLID
 8
TITLE
 10
  9.5000
 20
  3.6000
 30
0.0
 11
  9.5500
 21
  3.6200
 31
0.0
 12
  9.5500
 22
  3.5800
 32
0.0
 13
  9.5500
 23
  3.6000
 33
0.0
 0
POLYLINE
 8
TITLE
 66
1
 10
0.0
 20
0.0
 30
0.0
 0
VERTEX
 8
TITLE
 10
 -0.1000
 20
  3.6000
 30
0.0
 0
VERTEX
 8
TITLE
 10
  0.0000
 20
  3.6000
 30
0.0
 0
SEQEND
 8
TITLE
 0
POLYLINE
 8
TITLE
 66
1
 10
0.0
 20
0.0
 30
0.0
 0
VERTEX
 8
TITLE
 10
  9.5000
 20
  3.6000
 30
0.0
 0
VERTEX
 8
TITLE
 10
  9.6000
 20
  3.6000
 30
0.0
 0
SEQEND
 8
TITLE
 0
SOLID
 8
TITLE
 10
  0.0000
 20
  3.6000
 30
0.0
 11
 -0.0500
 21
  3.6200
 31
0.0
 12
 -0.0500
 22
  3.5800
 32
0.0
 13
 -0.0500
 23
  3.6000
 33
0.0
 0
SOLID
 8
TITLE
 10
  9.5000
 20
  3.6000
 30
0.0
 11
  9.5500
 21
  3.6200
 31
0.0
 12
  9.5500
 22
  3.5800
 32
0.0
 13
  9.5500
 23
  3.6000
 33
0.0
 0
POLYLINE
 8
TITLE
 66
1
 10
0.0
 20
0.0
 30
0.0
 0
VERTEX
 8
TITLE
 10
 -0.1000
 20
  1.9000
 30
0.0
 0
VERTEX
 8
TITLE
 10
  0.0000
 20
  1.9000
 30
0.0
 0
SEQEND
 8
TITLE
 0
POLYLINE
 8
TITLE
 66
1
 10
0.0
 20
0.0
 30
0.0
 0
VERTEX
 8
TITLE
 10
  9.5000
 20
  1.9000
 30
0.0
 0
VERTEX
 8
TITLE
 10
  9.6000
 20
  1.9000
 30
0.0
 0
SEQEND
 8
TITLE
 0
SOLID
 8
TITLE
 10
  0.0000
 20
  3.6000
 30
0.0
 11
 -0.0500
 21
  3.6200
 31
0.0
 12
 -0.0500
 22
  3.5800
 32
0.0
 13
 -0.0500
 23
  3.6000
 33
0.0
 0
SOLID
 8
TITLE
 10
  9.5000
 20
  3.6000
 30
0.0
 11
  9.5500
 21
  3.6200
 31
0.0
 12
  9.5500
 22
  3.5800
 32
0.0
 13
  9.5500
 23
  3.6000
 33
0.0
 0
TEXT
 8
TITLE
 10
 -0.0800
 20
  6.1500
 30
0.0
 40
  0.0500
 1
D
 0
TEXT
 8
TITLE
 10
  9.5200
 20
  6.1500
 30
0.0
 40
  0.0500
 1
D
 0
TEXT
 8
TITLE
 10
 -0.0800
 20
  4.4500
 30
0.0
 40
  0.0500
 1
C
 0
TEXT
 8
TITLE
 10
  9.5200
 20
  4.4500
 30
0.0
 40
  0.0500
 1
C
 0
TEXT
 8
TITLE
 10
 -0.0800
 20
  2.7500
 30
0.0
 40
  0.0500
 1
B
 0
TEXT
 8
TITLE
 10
  9.5200
 20
  2.7500
 30
0.0
 40
  0.0500
 1
B
 0
TEXT
 8
TITLE
 10
 -0.0800
 20
  1.0500
 30
0.0
 40
  0.0500
 1
A
 0
TEXT
 8
TITLE
 10
  9.5200
 20
  1.0500
 30
0.0
 40
  0.0500
 1
A
 0
TEXT
 8
PARTTEXT
 10
  1.6200
 20
  4.3486
 30
0.0
 40
  0.0514
 1
U6
 0
TEXT
 8
PARTTEXT
 10
  1.5800
 20
  3.5486
 30
0.0
 40
  0.0514
 1
DFFRS_ABM
 0
LINE
 8
PARTS
 10
  1.2200
 20
  3.9100
 30
0.0
 11
  1.3200
 21
  3.9100
 31
0.0
 0
LINE
 8
PARTS
 10
  1.3200
 20
  3.9700
 30
0.0
 11
  1.3800
 21
  3.9100
 31
0.0
 0
LINE
 8
PARTS
 10
  1.3800
 20
  3.9100
 30
0.0
 11
  1.3200
 21
  3.8500
 31
0.0
 0
TEXT
 8
PARTS
 10
  1.4100
 20
  3.8850
 30
0.0
 40
  0.0500
 1
CLK
 0
LINE
 8
PARTS
 10
  1.5200
 20
  3.6100
 30
0.0
 11
  1.5200
 21
  3.7100
 31
0.0
 0
TEXT
 8
PARTS
 10
  1.5450
 20
  3.8000
 30
0.0
 40
  0.0500
 50
 90.0000
 1
RST
 0
LINE
 8
PARTS
 10
  1.2200
 20
  4.1100
 30
0.0
 11
  1.3200
 21
  4.1100
 31
0.0
 0
TEXT
 8
PARTS
 10
  1.4100
 20
  4.0850
 30
0.0
 40
  0.0500
 1
D
 0
LINE
 8
PARTS
 10
  1.5200
 20
  4.4100
 30
0.0
 11
  1.5200
 21
  4.3100
 31
0.0
 0
TEXT
 8
PARTS
 10
  1.5450
 20
  4.1000
 30
0.0
 40
  0.0500
 50
 90.0000
 1
SET
 0
LINE
 8
PARTS
 10
  1.8200
 20
  4.1100
 30
0.0
 11
  1.7200
 21
  4.1100
 31
0.0
 0
TEXT
 8
PARTS
 10
  1.5900
 20
  4.0850
 30
0.0
 40
  0.0500
 1
Q
 0
CIRCLE
 8
PARTS
 10
  1.7500
 20
  3.9100
 30
0.0
 40
  0.0300
 0
LINE
 8
PARTS
 10
  1.8200
 20
  3.9100
 30
0.0
 11
  1.7800
 21
  3.9100
 31
0.0
 0
TEXT
 8
PARTS
 10
  1.5900
 20
  3.8850
 30
0.0
 40
  0.0500
 1
%%oQ%%o
 0
POLYLINE
 8
PARTS
 66
1
 70
1
 10
0.0
 20
0.0
 30
0.0
 0
VERTEX
 8
PARTS
 10
  1.3200
 20
  4.3100
 30
0.0
 0
VERTEX
 8
PARTS
 10
  1.7200
 20
  4.3100
 30
0.0
 0
VERTEX
 8
PARTS
 10
  1.7200
 20
  3.7100
 30
0.0
 0
VERTEX
 8
PARTS
 10
  1.3200
 20
  3.7100
 30
0.0
 0
SEQEND
 8
PARTS
 0
TEXT
 8
PARTTEXT
 10
  5.8600
 20
  1.9186
 30
0.0
 40
  0.0514
 1
V1
 0
TEXT
 8
PARTTEXT
 10
  5.4700
 20
  1.7986
 30
0.0
 40
  0.0514
 1
7.4V
 0
LINE
 8
PARTS
 10
  5.7700
 20
  1.5800
 30
0.0
 11
  5.7700
 21
  1.6800
 31
0.0
 0
POLYLINE
 8
PARTS
 66
1
 10
0.0
 20
0.0
 30
0.0
 0
VERTEX
 8
PARTS
 10
  5.7200
 20
  1.8100
 30
0.0
 0
VERTEX
 8
PARTS
 10
  5.8200
 20
  1.8100
 30
0.0
 0
SEQEND
 8
PARTS
 0
POLYLINE
 8
PARTS
 66
1
 10
0.0
 20
0.0
 30
0.0
 0
VERTEX
 8
PARTS
 10
  5.8700
 20
  1.7800
 30
0.0
 0
VERTEX
 8
PARTS
 10
  5.6700
 20
  1.7800
 30
0.0
 0
SEQEND
 8
PARTS
 0
POLYLINE
 8
PARTS
 66
1
 10
0.0
 20
0.0
 30
0.0
 0
VERTEX
 8
PARTS
 10
  5.7200
 20
  1.7400
 30
0.0
 0
VERTEX
 8
PARTS
 10
  5.8200
 20
  1.7400
 30
0.0
 0
SEQEND
 8
PARTS
 0
POLYLINE
 8
PARTS
 66
1
 10
0.0
 20
0.0
 30
0.0
 0
VERTEX
 8
PARTS
 10
  5.7700
 20
  1.8900
 30
0.0
 0
VERTEX
 8
PARTS
 10
  5.7700
 20
  1.8400
 30
0.0
 0
SEQEND
 8
PARTS
 0
POLYLINE
 8
PARTS
 66
1
 10
0.0
 20
0.0
 30
0.0
 0
VERTEX
 8
PARTS
 10
  5.7700
 20
  1.6800
 30
0.0
 0
VERTEX
 8
PARTS
 10
  5.7700
 20
  1.7400
 30
0.0
 0
SEQEND
 8
PARTS
 0
POLYLINE
 8
PARTS
 66
1
 10
0.0
 20
0.0
 30
0.0
 0
VERTEX
 8
PARTS
 10
  5.6700
 20
  1.8400
 30
0.0
 0
VERTEX
 8
PARTS
 10
  5.8700
 20
  1.8400
 30
0.0
 0
SEQEND
 8
PARTS
 0
POLYLINE
 8
PARTS
 66
1
 10
0.0
 20
0.0
 30
0.0
 0
VERTEX
 8
PARTS
 10
  5.7700
 20
  1.8800
 30
0.0
 0
VERTEX
 8
PARTS
 10
  5.7700
 20
  1.9800
 30
0.0
 0
SEQEND
 8
PARTS
 0
POLYLINE
 8
PARTS
 66
1
 10
0.0
 20
0.0
 30
0.0
 0
VERTEX
 8
PARTS
 10
  5.7000
 20
  1.9000
 30
0.0
 0
VERTEX
 8
PARTS
 10
  5.7000
 20
  1.8800
 30
0.0
 0
SEQEND
 8
PARTS
 0
POLYLINE
 8
PARTS
 66
1
 10
0.0
 20
0.0
 30
0.0
 0
VERTEX
 8
PARTS
 10
  5.6900
 20
  1.8900
 30
0.0
 0
VERTEX
 8
PARTS
 10
  5.7100
 20
  1.8900
 30
0.0
 0
SEQEND
 8
PARTS
 0
POLYLINE
 8
PARTS
 66
1
 10
0.0
 20
0.0
 30
0.0
 0
VERTEX
 8
PARTS
 10
  5.6900
 20
  1.7000
 30
0.0
 0
VERTEX
 8
PARTS
 10
  5.7100
 20
  1.7000
 30
0.0
 0
SEQEND
 8
PARTS
 0
TEXT
 8
PARTTEXT
 10
  9.2600
 20
  3.3186
 30
0.0
 40
  0.0514
 1
V2
 0
TEXT
 8
PARTTEXT
 10
  8.8700
 20
  3.1986
 30
0.0
 40
  0.0514
 1
15V
 0
LINE
 8
PARTS
 10
  9.1700
 20
  2.9800
 30
0.0
 11
  9.1700
 21
  3.0800
 31
0.0
 0
POLYLINE
 8
PARTS
 66
1
 10
0.0
 20
0.0
 30
0.0
 0
VERTEX
 8
PARTS
 10
  9.1200
 20
  3.2100
 30
0.0
 0
VERTEX
 8
PARTS
 10
  9.2200
 20
  3.2100
 30
0.0
 0
SEQEND
 8
PARTS
 0
POLYLINE
 8
PARTS
 66
1
 10
0.0
 20
0.0
 30
0.0
 0
VERTEX
 8
PARTS
 10
  9.2700
 20
  3.1800
 30
0.0
 0
VERTEX
 8
PARTS
 10
  9.0700
 20
  3.1800
 30
0.0
 0
SEQEND
 8
PARTS
 0
POLYLINE
 8
PARTS
 66
1
 10
0.0
 20
0.0
 30
0.0
 0
VERTEX
 8
PARTS
 10
  9.1200
 20
  3.1400
 30
0.0
 0
VERTEX
 8
PARTS
 10
  9.2200
 20
  3.1400
 30
0.0
 0
SEQEND
 8
PARTS
 0
POLYLINE
 8
PARTS
 66
1
 10
0.0
 20
0.0
 30
0.0
 0
VERTEX
 8
PARTS
 10
  9.1700
 20
  3.2900
 30
0.0
 0
VERTEX
 8
PARTS
 10
  9.1700
 20
  3.2400
 30
0.0
 0
SEQEND
 8
PARTS
 0
POLYLINE
 8
PARTS
 66
1
 10
0.0
 20
0.0
 30
0.0
 0
VERTEX
 8
PARTS
 10
  9.1700
 20
  3.0800
 30
0.0
 0
VERTEX
 8
PARTS
 10
  9.1700
 20
  3.1400
 30
0.0
 0
SEQEND
 8
PARTS
 0
POLYLINE
 8
PARTS
 66
1
 10
0.0
 20
0.0
 30
0.0
 0
VERTEX
 8
PARTS
 10
  9.0700
 20
  3.2400
 30
0.0
 0
VERTEX
 8
PARTS
 10
  9.2700
 20
  3.2400
 30
0.0
 0
SEQEND
 8
PARTS
 0
POLYLINE
 8
PARTS
 66
1
 10
0.0
 20
0.0
 30
0.0
 0
VERTEX
 8
PARTS
 10
  9.1700
 20
  3.2800
 30
0.0
 0
VERTEX
 8
PARTS
 10
  9.1700
 20
  3.3800
 30
0.0
 0
SEQEND
 8
PARTS
 0
POLYLINE
 8
PARTS
 66
1
 10
0.0
 20
0.0
 30
0.0
 0
VERTEX
 8
PARTS
 10
  9.1000
 20
  3.3000
 30
0.0
 0
VERTEX
 8
PARTS
 10
  9.1000
 20
  3.2800
 30
0.0
 0
SEQEND
 8
PARTS
 0
POLYLINE
 8
PARTS
 66
1
 10
0.0
 20
0.0
 30
0.0
 0
VERTEX
 8
PARTS
 10
  9.0900
 20
  3.2900
 30
0.0
 0
VERTEX
 8
PARTS
 10
  9.1100
 20
  3.2900
 30
0.0
 0
SEQEND
 8
PARTS
 0
POLYLINE
 8
PARTS
 66
1
 10
0.0
 20
0.0
 30
0.0
 0
VERTEX
 8
PARTS
 10
  9.0900
 20
  3.1000
 30
0.0
 0
VERTEX
 8
PARTS
 10
  9.1100
 20
  3.1000
 30
0.0
 0
SEQEND
 8
PARTS
 0
TEXT
 8
PARTTEXT
 10
  6.7000
 20
  5.2486
 30
0.0
 40
  0.0514
 1
R3
 0
TEXT
 8
PARTTEXT
 10
  6.7000
 20
  4.9986
 30
0.0
 40
  0.0514
 1
4k
 0
LINE
 8
PARTS
 10
  6.9500
 20
  5.1300
 30
0.0
 11
  6.8500
 21
  5.1300
 31
0.0
 0
LINE
 8
PARTS
 10
  6.5500
 20
  5.1300
 30
0.0
 11
  6.6500
 21
  5.1300
 31
0.0
 0
POLYLINE
 8
PARTS
 66
1
 10
0.0
 20
0.0
 30
0.0
 0
VERTEX
 8
PARTS
 10
  6.6600
 20
  5.1300
 30
0.0
 0
VERTEX
 8
PARTS
 10
  6.6800
 20
  5.1700
 30
0.0
 0
SEQEND
 8
PARTS
 0
POLYLINE
 8
PARTS
 66
1
 10
0.0
 20
0.0
 30
0.0
 0
VERTEX
 8
PARTS
 10
  6.6800
 20
  5.1700
 30
0.0
 0
VERTEX
 8
PARTS
 10
  6.7100
 20
  5.0900
 30
0.0
 0
SEQEND
 8
PARTS
 0
POLYLINE
 8
PARTS
 66
1
 10
0.0
 20
0.0
 30
0.0
 0
VERTEX
 8
PARTS
 10
  6.7100
 20
  5.0900
 30
0.0
 0
VERTEX
 8
PARTS
 10
  6.7400
 20
  5.1700
 30
0.0
 0
SEQEND
 8
PARTS
 0
POLYLINE
 8
PARTS
 66
1
 10
0.0
 20
0.0
 30
0.0
 0
VERTEX
 8
PARTS
 10
  6.7400
 20
  5.1700
 30
0.0
 0
VERTEX
 8
PARTS
 10
  6.7700
 20
  5.0900
 30
0.0
 0
SEQEND
 8
PARTS
 0
POLYLINE
 8
PARTS
 66
1
 10
0.0
 20
0.0
 30
0.0
 0
VERTEX
 8
PARTS
 10
  6.7700
 20
  5.0900
 30
0.0
 0
VERTEX
 8
PARTS
 10
  6.8000
 20
  5.1700
 30
0.0
 0
SEQEND
 8
PARTS
 0
POLYLINE
 8
PARTS
 66
1
 10
0.0
 20
0.0
 30
0.0
 0
VERTEX
 8
PARTS
 10
  6.8000
 20
  5.1700
 30
0.0
 0
VERTEX
 8
PARTS
 10
  6.8300
 20
  5.0900
 30
0.0
 0
SEQEND
 8
PARTS
 0
POLYLINE
 8
PARTS
 66
1
 10
0.0
 20
0.0
 30
0.0
 0
VERTEX
 8
PARTS
 10
  6.8300
 20
  5.0900
 30
0.0
 0
VERTEX
 8
PARTS
 10
  6.8500
 20
  5.1300
 30
0.0
 0
SEQEND
 8
PARTS
 0
POLYLINE
 8
PARTS
 66
1
 10
0.0
 20
0.0
 30
0.0
 0
VERTEX
 8
PARTS
 10
  6.6500
 20
  5.1300
 30
0.0
 0
VERTEX
 8
PARTS
 10
  6.6600
 20
  5.1300
 30
0.0
 0
SEQEND
 8
PARTS
 0
TEXT
 8
PARTTEXT
 10
  4.5800
 20
  6.7686
 30
0.0
 40
  0.0514
 1
U4
 0
TEXT
 8
PARTTEXT
 10
  4.5400
 20
  5.9686
 30
0.0
 40
  0.0514
 1
DFFRS_ABM
 0
LINE
 8
PARTS
 10
  4.1800
 20
  6.3300
 30
0.0
 11
  4.2800
 21
  6.3300
 31
0.0
 0
LINE
 8
PARTS
 10
  4.2800
 20
  6.3900
 30
0.0
 11
  4.3400
 21
  6.3300
 31
0.0
 0
LINE
 8
PARTS
 10
  4.3400
 20
  6.3300
 30
0.0
 11
  4.2800
 21
  6.2700
 31
0.0
 0
TEXT
 8
PARTS
 10
  4.3700
 20
  6.3050
 30
0.0
 40
  0.0500
 1
CLK
 0
LINE
 8
PARTS
 10
  4.4800
 20
  6.0300
 30
0.0
 11
  4.4800
 21
  6.1300
 31
0.0
 0
TEXT
 8
PARTS
 10
  4.5050
 20
  6.2200
 30
0.0
 40
  0.0500
 50
 90.0000
 1
RST
 0
LINE
 8
PARTS
 10
  4.1800
 20
  6.5300
 30
0.0
 11
  4.2800
 21
  6.5300
 31
0.0
 0
TEXT
 8
PARTS
 10
  4.3700
 20
  6.5050
 30
0.0
 40
  0.0500
 1
D
 0
LINE
 8
PARTS
 10
  4.4800
 20
  6.8300
 30
0.0
 11
  4.4800
 21
  6.7300
 31
0.0
 0
TEXT
 8
PARTS
 10
  4.5050
 20
  6.5200
 30
0.0
 40
  0.0500
 50
 90.0000
 1
SET
 0
LINE
 8
PARTS
 10
  4.7800
 20
  6.5300
 30
0.0
 11
  4.6800
 21
  6.5300
 31
0.0
 0
TEXT
 8
PARTS
 10
  4.5500
 20
  6.5050
 30
0.0
 40
  0.0500
 1
Q
 0
CIRCLE
 8
PARTS
 10
  4.7100
 20
  6.3300
 30
0.0
 40
  0.0300
 0
LINE
 8
PARTS
 10
  4.7800
 20
  6.3300
 30
0.0
 11
  4.7400
 21
  6.3300
 31
0.0
 0
TEXT
 8
PARTS
 10
  4.5500
 20
  6.3050
 30
0.0
 40
  0.0500
 1
%%oQ%%o
 0
POLYLINE
 8
PARTS
 66
1
 70
1
 10
0.0
 20
0.0
 30
0.0
 0
VERTEX
 8
PARTS
 10
  4.2800
 20
  6.7300
 30
0.0
 0
VERTEX
 8
PARTS
 10
  4.6800
 20
  6.7300
 30
0.0
 0
VERTEX
 8
PARTS
 10
  4.6800
 20
  6.1300
 30
0.0
 0
VERTEX
 8
PARTS
 10
  4.2800
 20
  6.1300
 30
0.0
 0
SEQEND
 8
PARTS
 0
TEXT
 8
PARTTEXT
 10
  0.4800
 20
  6.8686
 30
0.0
 40
  0.0514
 1
V3
 0
TEXT
 8
PARTTEXT
 10
  0.1200
 20
  6.7786
 30
0.0
 40
  0.0514
 1
0Vac
 0
TEXT
 8
PARTTEXT
 10
  0.1300
 20
  6.6586
 30
0.0
 40
  0.0514
 1
5Vdc
 0
LINE
 8
PARTS
 10
  0.4300
 20
  6.9600
 30
0.0
 11
  0.4300
 21
  6.8600
 31
0.0
 0
LINE
 8
PARTS
 10
  0.4300
 20
  6.5600
 30
0.0
 11
  0.4300
 21
  6.6600
 31
0.0
 0
POLYLINE
 8
PARTS
 66
1
 10
0.0
 20
0.0
 30
0.0
 0
VERTEX
 8
PARTS
 10
  0.4300
 20
  6.7600
 30
0.0
 42
  1.0000
 0
VERTEX
 8
PARTS
 10
  0.3700
 20
  6.7600
 30
0.0
 0
SEQEND
 8
PARTS
 0
POLYLINE
 8
PARTS
 66
1
 10
0.0
 20
0.0
 30
0.0
 0
VERTEX
 8
PARTS
 10
  0.4300
 20
  6.7600
 30
0.0
 42
 -1.0000
 0
VERTEX
 8
PARTS
 10
  0.4900
 20
  6.7600
 30
0.0
 0
SEQEND
 8
PARTS
 0
POLYLINE
 8
PARTS
 66
1
 70
1
 10
0.0
 20
0.0
 30
0.0
 0
VERTEX
 8
PARTS
 10
  0.5300
 20
  6.7600
 30
0.0
 42
  0.0985
 0
VERTEX
 8
PARTS
 10
  0.5224
 20
  6.7983
 30
0.0
 42
  0.0985
 0
VERTEX
 8
PARTS
 10
  0.5007
 20
  6.8307
 30
0.0
 42
  0.0985
 0
VERTEX
 8
PARTS
 10
  0.4683
 20
  6.8524
 30
0.0
 42
  0.0985
 0
VERTEX
 8
PARTS
 10
  0.4300
 20
  6.8600
 30
0.0
 42
  0.0985
 0
VERTEX
 8
PARTS
 10
  0.3917
 20
  6.8524
 30
0.0
 42
  0.0985
 0
VERTEX
 8
PARTS
 10
  0.3593
 20
  6.8307
 30
0.0
 42
  0.0985
 0
VERTEX
 8
PARTS
 10
  0.3376
 20
  6.7983
 30
0.0
 42
  0.0985
 0
VERTEX
 8
PARTS
 10
  0.3300
 20
  6.7600
 30
0.0
 42
  0.0985
 0
VERTEX
 8
PARTS
 10
  0.3376
 20
  6.7217
 30
0.0
 42
  0.0985
 0
VERTEX
 8
PARTS
 10
  0.3593
 20
  6.6893
 30
0.0
 42
  0.0985
 0
VERTEX
 8
PARTS
 10
  0.3917
 20
  6.6676
 30
0.0
 42
  0.0985
 0
VERTEX
 8
PARTS
 10
  0.4300
 20
  6.6600
 30
0.0
 42
  0.0985
 0
VERTEX
 8
PARTS
 10
  0.4683
 20
  6.6676
 30
0.0
 42
  0.0985
 0
VERTEX
 8
PARTS
 10
  0.5007
 20
  6.6893
 30
0.0
 42
  0.0985
 0
VERTEX
 8
PARTS
 10
  0.5224
 20
  6.7217
 30
0.0
 42
  0.0985
 0
SEQEND
 8
PARTS
 0
POLYLINE
 8
PARTS
 66
1
 10
0.0
 20
0.0
 30
0.0
 0
VERTEX
 8
PARTS
 10
  0.4200
 20
  6.6900
 30
0.0
 0
VERTEX
 8
PARTS
 10
  0.4400
 20
  6.6900
 30
0.0
 0
SEQEND
 8
PARTS
 0
POLYLINE
 8
PARTS
 66
1
 10
0.0
 20
0.0
 30
0.0
 0
VERTEX
 8
PARTS
 10
  0.4300
 20
  6.8500
 30
0.0
 0
VERTEX
 8
PARTS
 10
  0.4300
 20
  6.8300
 30
0.0
 0
SEQEND
 8
PARTS
 0
POLYLINE
 8
PARTS
 66
1
 10
0.0
 20
0.0
 30
0.0
 0
VERTEX
 8
PARTS
 10
  0.4200
 20
  6.8400
 30
0.0
 0
VERTEX
 8
PARTS
 10
  0.4400
 20
  6.8400
 30
0.0
 0
SEQEND
 8
PARTS
 0
TEXT
 8
PARTTEXT
 10
  2.6200
 20
  4.3486
 30
0.0
 40
  0.0514
 1
U7
 0
TEXT
 8
PARTTEXT
 10
  2.5800
 20
  3.5486
 30
0.0
 40
  0.0514
 1
DFFRS_ABM
 0
LINE
 8
PARTS
 10
  2.2200
 20
  3.9100
 30
0.0
 11
  2.3200
 21
  3.9100
 31
0.0
 0
LINE
 8
PARTS
 10
  2.3200
 20
  3.9700
 30
0.0
 11
  2.3800
 21
  3.9100
 31
0.0
 0
LINE
 8
PARTS
 10
  2.3800
 20
  3.9100
 30
0.0
 11
  2.3200
 21
  3.8500
 31
0.0
 0
TEXT
 8
PARTS
 10
  2.4100
 20
  3.8850
 30
0.0
 40
  0.0500
 1
CLK
 0
LINE
 8
PARTS
 10
  2.5200
 20
  3.6100
 30
0.0
 11
  2.5200
 21
  3.7100
 31
0.0
 0
TEXT
 8
PARTS
 10
  2.5450
 20
  3.8000
 30
0.0
 40
  0.0500
 50
 90.0000
 1
RST
 0
LINE
 8
PARTS
 10
  2.2200
 20
  4.1100
 30
0.0
 11
  2.3200
 21
  4.1100
 31
0.0
 0
TEXT
 8
PARTS
 10
  2.4100
 20
  4.0850
 30
0.0
 40
  0.0500
 1
D
 0
LINE
 8
PARTS
 10
  2.5200
 20
  4.4100
 30
0.0
 11
  2.5200
 21
  4.3100
 31
0.0
 0
TEXT
 8
PARTS
 10
  2.5450
 20
  4.1000
 30
0.0
 40
  0.0500
 50
 90.0000
 1
SET
 0
LINE
 8
PARTS
 10
  2.8200
 20
  4.1100
 30
0.0
 11
  2.7200
 21
  4.1100
 31
0.0
 0
TEXT
 8
PARTS
 10
  2.5900
 20
  4.0850
 30
0.0
 40
  0.0500
 1
Q
 0
CIRCLE
 8
PARTS
 10
  2.7500
 20
  3.9100
 30
0.0
 40
  0.0300
 0
LINE
 8
PARTS
 10
  2.8200
 20
  3.9100
 30
0.0
 11
  2.7800
 21
  3.9100
 31
0.0
 0
TEXT
 8
PARTS
 10
  2.5900
 20
  3.8850
 30
0.0
 40
  0.0500
 1
%%oQ%%o
 0
POLYLINE
 8
PARTS
 66
1
 70
1
 10
0.0
 20
0.0
 30
0.0
 0
VERTEX
 8
PARTS
 10
  2.3200
 20
  4.3100
 30
0.0
 0
VERTEX
 8
PARTS
 10
  2.7200
 20
  4.3100
 30
0.0
 0
VERTEX
 8
PARTS
 10
  2.7200
 20
  3.7100
 30
0.0
 0
VERTEX
 8
PARTS
 10
  2.3200
 20
  3.7100
 30
0.0
 0
SEQEND
 8
PARTS
 0
TEXT
 8
PARTTEXT
 10
  7.5400
 20
  4.5386
 30
0.0
 40
  0.0514
 1
R6
 0
TEXT
 8
PARTTEXT
 10
  7.5400
 20
  4.4186
 30
0.0
 40
  0.0514
 1
320
 0
LINE
 8
PARTS
 10
  7.3800
 20
  4.3200
 30
0.0
 11
  7.3800
 21
  4.4200
 31
0.0
 0
LINE
 8
PARTS
 10
  7.3800
 20
  4.7200
 30
0.0
 11
  7.3800
 21
  4.6200
 31
0.0
 0
POLYLINE
 8
PARTS
 66
1
 10
0.0
 20
0.0
 30
0.0
 0
VERTEX
 8
PARTS
 10
  7.3800
 20
  4.6100
 30
0.0
 0
VERTEX
 8
PARTS
 10
  7.4200
 20
  4.5900
 30
0.0
 0
SEQEND
 8
PARTS
 0
POLYLINE
 8
PARTS
 66
1
 10
0.0
 20
0.0
 30
0.0
 0
VERTEX
 8
PARTS
 10
  7.4200
 20
  4.5900
 30
0.0
 0
VERTEX
 8
PARTS
 10
  7.3400
 20
  4.5600
 30
0.0
 0
SEQEND
 8
PARTS
 0
POLYLINE
 8
PARTS
 66
1
 10
0.0
 20
0.0
 30
0.0
 0
VERTEX
 8
PARTS
 10
  7.3400
 20
  4.5600
 30
0.0
 0
VERTEX
 8
PARTS
 10
  7.4200
 20
  4.5300
 30
0.0
 0
SEQEND
 8
PARTS
 0
POLYLINE
 8
PARTS
 66
1
 10
0.0
 20
0.0
 30
0.0
 0
VERTEX
 8
PARTS
 10
  7.4200
 20
  4.5300
 30
0.0
 0
VERTEX
 8
PARTS
 10
  7.3400
 20
  4.5000
 30
0.0
 0
SEQEND
 8
PARTS
 0
POLYLINE
 8
PARTS
 66
1
 10
0.0
 20
0.0
 30
0.0
 0
VERTEX
 8
PARTS
 10
  7.3400
 20
  4.5000
 30
0.0
 0
VERTEX
 8
PARTS
 10
  7.4200
 20
  4.4700
 30
0.0
 0
SEQEND
 8
PARTS
 0
POLYLINE
 8
PARTS
 66
1
 10
0.0
 20
0.0
 30
0.0
 0
VERTEX
 8
PARTS
 10
  7.4200
 20
  4.4700
 30
0.0
 0
VERTEX
 8
PARTS
 10
  7.3400
 20
  4.4400
 30
0.0
 0
SEQEND
 8
PARTS
 0
POLYLINE
 8
PARTS
 66
1
 10
0.0
 20
0.0
 30
0.0
 0
VERTEX
 8
PARTS
 10
  7.3400
 20
  4.4400
 30
0.0
 0
VERTEX
 8
PARTS
 10
  7.3800
 20
  4.4200
 30
0.0
 0
SEQEND
 8
PARTS
 0
POLYLINE
 8
PARTS
 66
1
 10
0.0
 20
0.0
 30
0.0
 0
VERTEX
 8
PARTS
 10
  7.3800
 20
  4.6200
 30
0.0
 0
VERTEX
 8
PARTS
 10
  7.3800
 20
  4.6100
 30
0.0
 0
SEQEND
 8
PARTS
 0
TEXT
 8
PARTTEXT
 10
  6.7000
 20
  5.7586
 30
0.0
 40
  0.0514
 1
R2
 0
TEXT
 8
PARTTEXT
 10
  6.7000
 20
  5.5086
 30
0.0
 40
  0.0514
 1
2k
 0
LINE
 8
PARTS
 10
  6.9500
 20
  5.6400
 30
0.0
 11
  6.8500
 21
  5.6400
 31
0.0
 0
LINE
 8
PARTS
 10
  6.5500
 20
  5.6400
 30
0.0
 11
  6.6500
 21
  5.6400
 31
0.0
 0
POLYLINE
 8
PARTS
 66
1
 10
0.0
 20
0.0
 30
0.0
 0
VERTEX
 8
PARTS
 10
  6.6600
 20
  5.6400
 30
0.0
 0
VERTEX
 8
PARTS
 10
  6.6800
 20
  5.6800
 30
0.0
 0
SEQEND
 8
PARTS
 0
POLYLINE
 8
PARTS
 66
1
 10
0.0
 20
0.0
 30
0.0
 0
VERTEX
 8
PARTS
 10
  6.6800
 20
  5.6800
 30
0.0
 0
VERTEX
 8
PARTS
 10
  6.7100
 20
  5.6000
 30
0.0
 0
SEQEND
 8
PARTS
 0
POLYLINE
 8
PARTS
 66
1
 10
0.0
 20
0.0
 30
0.0
 0
VERTEX
 8
PARTS
 10
  6.7100
 20
  5.6000
 30
0.0
 0
VERTEX
 8
PARTS
 10
  6.7400
 20
  5.6800
 30
0.0
 0
SEQEND
 8
PARTS
 0
POLYLINE
 8
PARTS
 66
1
 10
0.0
 20
0.0
 30
0.0
 0
VERTEX
 8
PARTS
 10
  6.7400
 20
  5.6800
 30
0.0
 0
VERTEX
 8
PARTS
 10
  6.7700
 20
  5.6000
 30
0.0
 0
SEQEND
 8
PARTS
 0
POLYLINE
 8
PARTS
 66
1
 10
0.0
 20
0.0
 30
0.0
 0
VERTEX
 8
PARTS
 10
  6.7700
 20
  5.6000
 30
0.0
 0
VERTEX
 8
PARTS
 10
  6.8000
 20
  5.6800
 30
0.0
 0
SEQEND
 8
PARTS
 0
POLYLINE
 8
PARTS
 66
1
 10
0.0
 20
0.0
 30
0.0
 0
VERTEX
 8
PARTS
 10
  6.8000
 20
  5.6800
 30
0.0
 0
VERTEX
 8
PARTS
 10
  6.8300
 20
  5.6000
 30
0.0
 0
SEQEND
 8
PARTS
 0
POLYLINE
 8
PARTS
 66
1
 10
0.0
 20
0.0
 30
0.0
 0
VERTEX
 8
PARTS
 10
  6.8300
 20
  5.6000
 30
0.0
 0
VERTEX
 8
PARTS
 10
  6.8500
 20
  5.6400
 30
0.0
 0
SEQEND
 8
PARTS
 0
POLYLINE
 8
PARTS
 66
1
 10
0.0
 20
0.0
 30
0.0
 0
VERTEX
 8
PARTS
 10
  6.6500
 20
  5.6400
 30
0.0
 0
VERTEX
 8
PARTS
 10
  6.6600
 20
  5.6400
 30
0.0
 0
SEQEND
 8
PARTS
 0
TEXT
 8
PARTTEXT
 10
  8.4300
 20
  1.2986
 30
0.0
 40
  0.0514
 1
R8
 0
TEXT
 8
PARTTEXT
 10
  8.4300
 20
  1.1786
 30
0.0
 40
  0.0514
 1
15k
 0
LINE
 8
PARTS
 10
  8.2700
 20
  1.4800
 30
0.0
 11
  8.2700
 21
  1.3800
 31
0.0
 0
LINE
 8
PARTS
 10
  8.2700
 20
  1.0800
 30
0.0
 11
  8.2700
 21
  1.1800
 31
0.0
 0
POLYLINE
 8
PARTS
 66
1
 10
0.0
 20
0.0
 30
0.0
 0
VERTEX
 8
PARTS
 10
  8.2700
 20
  1.1900
 30
0.0
 0
VERTEX
 8
PARTS
 10
  8.2300
 20
  1.2100
 30
0.0
 0
SEQEND
 8
PARTS
 0
POLYLINE
 8
PARTS
 66
1
 10
0.0
 20
0.0
 30
0.0
 0
VERTEX
 8
PARTS
 10
  8.2300
 20
  1.2100
 30
0.0
 0
VERTEX
 8
PARTS
 10
  8.3100
 20
  1.2400
 30
0.0
 0
SEQEND
 8
PARTS
 0
POLYLINE
 8
PARTS
 66
1
 10
0.0
 20
0.0
 30
0.0
 0
VERTEX
 8
PARTS
 10
  8.3100
 20
  1.2400
 30
0.0
 0
VERTEX
 8
PARTS
 10
  8.2300
 20
  1.2700
 30
0.0
 0
SEQEND
 8
PARTS
 0
POLYLINE
 8
PARTS
 66
1
 10
0.0
 20
0.0
 30
0.0
 0
VERTEX
 8
PARTS
 10
  8.2300
 20
  1.2700
 30
0.0
 0
VERTEX
 8
PARTS
 10
  8.3100
 20
  1.3000
 30
0.0
 0
SEQEND
 8
PARTS
 0
POLYLINE
 8
PARTS
 66
1
 10
0.0
 20
0.0
 30
0.0
 0
VERTEX
 8
PARTS
 10
  8.3100
 20
  1.3000
 30
0.0
 0
VERTEX
 8
PARTS
 10
  8.2300
 20
  1.3300
 30
0.0
 0
SEQEND
 8
PARTS
 0
POLYLINE
 8
PARTS
 66
1
 10
0.0
 20
0.0
 30
0.0
 0
VERTEX
 8
PARTS
 10
  8.2300
 20
  1.3300
 30
0.0
 0
VERTEX
 8
PARTS
 10
  8.3100
 20
  1.3600
 30
0.0
 0
SEQEND
 8
PARTS
 0
POLYLINE
 8
PARTS
 66
1
 10
0.0
 20
0.0
 30
0.0
 0
VERTEX
 8
PARTS
 10
  8.3100
 20
  1.3600
 30
0.0
 0
VERTEX
 8
PARTS
 10
  8.2700
 20
  1.3800
 30
0.0
 0
SEQEND
 8
PARTS
 0
POLYLINE
 8
PARTS
 66
1
 10
0.0
 20
0.0
 30
0.0
 0
VERTEX
 8
PARTS
 10
  8.2700
 20
  1.1800
 30
0.0
 0
VERTEX
 8
PARTS
 10
  8.2700
 20
  1.1900
 30
0.0
 0
SEQEND
 8
PARTS
 0
TEXT
 8
PARTTEXT
 10
  5.5000
 20
  6.7686
 30
0.0
 40
  0.0514
 1
U5
 0
TEXT
 8
PARTTEXT
 10
  5.4600
 20
  5.9686
 30
0.0
 40
  0.0514
 1
DFFRS_ABM
 0
LINE
 8
PARTS
 10
  5.1000
 20
  6.3300
 30
0.0
 11
  5.2000
 21
  6.3300
 31
0.0
 0
LINE
 8
PARTS
 10
  5.2000
 20
  6.3900
 30
0.0
 11
  5.2600
 21
  6.3300
 31
0.0
 0
LINE
 8
PARTS
 10
  5.2600
 20
  6.3300
 30
0.0
 11
  5.2000
 21
  6.2700
 31
0.0
 0
TEXT
 8
PARTS
 10
  5.2900
 20
  6.3050
 30
0.0
 40
  0.0500
 1
CLK
 0
LINE
 8
PARTS
 10
  5.4000
 20
  6.0300
 30
0.0
 11
  5.4000
 21
  6.1300
 31
0.0
 0
TEXT
 8
PARTS
 10
  5.4250
 20
  6.2200
 30
0.0
 40
  0.0500
 50
 90.0000
 1
RST
 0
LINE
 8
PARTS
 10
  5.1000
 20
  6.5300
 30
0.0
 11
  5.2000
 21
  6.5300
 31
0.0
 0
TEXT
 8
PARTS
 10
  5.2900
 20
  6.5050
 30
0.0
 40
  0.0500
 1
D
 0
LINE
 8
PARTS
 10
  5.4000
 20
  6.8300
 30
0.0
 11
  5.4000
 21
  6.7300
 31
0.0
 0
TEXT
 8
PARTS
 10
  5.4250
 20
  6.5200
 30
0.0
 40
  0.0500
 50
 90.0000
 1
SET
 0
LINE
 8
PARTS
 10
  5.7000
 20
  6.5300
 30
0.0
 11
  5.6000
 21
  6.5300
 31
0.0
 0
TEXT
 8
PARTS
 10
  5.4700
 20
  6.5050
 30
0.0
 40
  0.0500
 1
Q
 0
CIRCLE
 8
PARTS
 10
  5.6300
 20
  6.3300
 30
0.0
 40
  0.0300
 0
LINE
 8
PARTS
 10
  5.7000
 20
  6.3300
 30
0.0
 11
  5.6600
 21
  6.3300
 31
0.0
 0
TEXT
 8
PARTS
 10
  5.4700
 20
  6.3050
 30
0.0
 40
  0.0500
 1
%%oQ%%o
 0
POLYLINE
 8
PARTS
 66
1
 70
1
 10
0.0
 20
0.0
 30
0.0
 0
VERTEX
 8
PARTS
 10
  5.2000
 20
  6.7300
 30
0.0
 0
VERTEX
 8
PARTS
 10
  5.6000
 20
  6.7300
 30
0.0
 0
VERTEX
 8
PARTS
 10
  5.6000
 20
  6.1300
 30
0.0
 0
VERTEX
 8
PARTS
 10
  5.2000
 20
  6.1300
 30
0.0
 0
SEQEND
 8
PARTS
 0
TEXT
 8
PARTTEXT
 10
  7.8000
 20
  5.0686
 30
0.0
 40
  0.0514
 1
R5
 0
TEXT
 8
PARTTEXT
 10
  7.8000
 20
  4.6586
 30
0.0
 40
  0.0514
 1
1k
 0
LINE
 8
PARTS
 10
  7.7000
 20
  4.9000
 30
0.0
 11
  7.8000
 21
  4.9000
 31
0.0
 0
LINE
 8
PARTS
 10
  8.1000
 20
  4.9000
 30
0.0
 11
  8.0000
 21
  4.9000
 31
0.0
 0
POLYLINE
 8
PARTS
 66
1
 10
0.0
 20
0.0
 30
0.0
 0
VERTEX
 8
PARTS
 10
  7.9900
 20
  4.9000
 30
0.0
 0
VERTEX
 8
PARTS
 10
  7.9700
 20
  4.8600
 30
0.0
 0
SEQEND
 8
PARTS
 0
POLYLINE
 8
PARTS
 66
1
 10
0.0
 20
0.0
 30
0.0
 0
VERTEX
 8
PARTS
 10
  7.9700
 20
  4.8600
 30
0.0
 0
VERTEX
 8
PARTS
 10
  7.9400
 20
  4.9400
 30
0.0
 0
SEQEND
 8
PARTS
 0
POLYLINE
 8
PARTS
 66
1
 10
0.0
 20
0.0
 30
0.0
 0
VERTEX
 8
PARTS
 10
  7.9400
 20
  4.9400
 30
0.0
 0
VERTEX
 8
PARTS
 10
  7.9100
 20
  4.8600
 30
0.0
 0
SEQEND
 8
PARTS
 0
POLYLINE
 8
PARTS
 66
1
 10
0.0
 20
0.0
 30
0.0
 0
VERTEX
 8
PARTS
 10
  7.9100
 20
  4.8600
 30
0.0
 0
VERTEX
 8
PARTS
 10
  7.8800
 20
  4.9400
 30
0.0
 0
SEQEND
 8
PARTS
 0
POLYLINE
 8
PARTS
 66
1
 10
0.0
 20
0.0
 30
0.0
 0
VERTEX
 8
PARTS
 10
  7.8800
 20
  4.9400
 30
0.0
 0
VERTEX
 8
PARTS
 10
  7.8500
 20
  4.8600
 30
0.0
 0
SEQEND
 8
PARTS
 0
POLYLINE
 8
PARTS
 66
1
 10
0.0
 20
0.0
 30
0.0
 0
VERTEX
 8
PARTS
 10
  7.8500
 20
  4.8600
 30
0.0
 0
VERTEX
 8
PARTS
 10
  7.8200
 20
  4.9400
 30
0.0
 0
SEQEND
 8
PARTS
 0
POLYLINE
 8
PARTS
 66
1
 10
0.0
 20
0.0
 30
0.0
 0
VERTEX
 8
PARTS
 10
  7.8200
 20
  4.9400
 30
0.0
 0
VERTEX
 8
PARTS
 10
  7.8000
 20
  4.9000
 30
0.0
 0
SEQEND
 8
PARTS
 0
POLYLINE
 8
PARTS
 66
1
 10
0.0
 20
0.0
 30
0.0
 0
VERTEX
 8
PARTS
 10
  8.0000
 20
  4.9000
 30
0.0
 0
VERTEX
 8
PARTS
 10
  7.9900
 20
  4.9000
 30
0.0
 0
SEQEND
 8
PARTS
 0
TEXT
 8
PARTTEXT
 10
  1.6500
 20
  6.7886
 30
0.0
 40
  0.0514
 1
U1
 0
TEXT
 8
PARTTEXT
 10
  1.6100
 20
  5.9886
 30
0.0
 40
  0.0514
 1
DFFRS_ABM
 0
LINE
 8
PARTS
 10
  1.2500
 20
  6.3500
 30
0.0
 11
  1.3500
 21
  6.3500
 31
0.0
 0
LINE
 8
PARTS
 10
  1.3500
 20
  6.4100
 30
0.0
 11
  1.4100
 21
  6.3500
 31
0.0
 0
LINE
 8
PARTS
 10
  1.4100
 20
  6.3500
 30
0.0
 11
  1.3500
 21
  6.2900
 31
0.0
 0
TEXT
 8
PARTS
 10
  1.4400
 20
  6.3250
 30
0.0
 40
  0.0500
 1
CLK
 0
LINE
 8
PARTS
 10
  1.5500
 20
  6.0500
 30
0.0
 11
  1.5500
 21
  6.1500
 31
0.0
 0
TEXT
 8
PARTS
 10
  1.5750
 20
  6.2400
 30
0.0
 40
  0.0500
 50
 90.0000
 1
RST
 0
LINE
 8
PARTS
 10
  1.2500
 20
  6.5500
 30
0.0
 11
  1.3500
 21
  6.5500
 31
0.0
 0
TEXT
 8
PARTS
 10
  1.4400
 20
  6.5250
 30
0.0
 40
  0.0500
 1
D
 0
LINE
 8
PARTS
 10
  1.5500
 20
  6.8500
 30
0.0
 11
  1.5500
 21
  6.7500
 31
0.0
 0
TEXT
 8
PARTS
 10
  1.5750
 20
  6.5400
 30
0.0
 40
  0.0500
 50
 90.0000
 1
SET
 0
LINE
 8
PARTS
 10
  1.8500
 20
  6.5500
 30
0.0
 11
  1.7500
 21
  6.5500
 31
0.0
 0
TEXT
 8
PARTS
 10
  1.6200
 20
  6.5250
 30
0.0
 40
  0.0500
 1
Q
 0
CIRCLE
 8
PARTS
 10
  1.7800
 20
  6.3500
 30
0.0
 40
  0.0300
 0
LINE
 8
PARTS
 10
  1.8500
 20
  6.3500
 30
0.0
 11
  1.8100
 21
  6.3500
 31
0.0
 0
TEXT
 8
PARTS
 10
  1.6200
 20
  6.3250
 30
0.0
 40
  0.0500
 1
%%oQ%%o
 0
POLYLINE
 8
PARTS
 66
1
 70
1
 10
0.0
 20
0.0
 30
0.0
 0
VERTEX
 8
PARTS
 10
  1.3500
 20
  6.7500
 30
0.0
 0
VERTEX
 8
PARTS
 10
  1.7500
 20
  6.7500
 30
0.0
 0
VERTEX
 8
PARTS
 10
  1.7500
 20
  6.1500
 30
0.0
 0
VERTEX
 8
PARTS
 10
  1.3500
 20
  6.1500
 30
0.0
 0
SEQEND
 8
PARTS
 0
TEXT
 8
PARTTEXT
 10
  3.6600
 20
  4.3286
 30
0.0
 40
  0.0514
 1
U8
 0
TEXT
 8
PARTTEXT
 10
  3.6200
 20
  3.5286
 30
0.0
 40
  0.0514
 1
DFFRS_ABM
 0
LINE
 8
PARTS
 10
  3.2600
 20
  3.8900
 30
0.0
 11
  3.3600
 21
  3.8900
 31
0.0
 0
LINE
 8
PARTS
 10
  3.3600
 20
  3.9500
 30
0.0
 11
  3.4200
 21
  3.8900
 31
0.0
 0
LINE
 8
PARTS
 10
  3.4200
 20
  3.8900
 30
0.0
 11
  3.3600
 21
  3.8300
 31
0.0
 0
TEXT
 8
PARTS
 10
  3.4500
 20
  3.8650
 30
0.0
 40
  0.0500
 1
CLK
 0
LINE
 8
PARTS
 10
  3.5600
 20
  3.5900
 30
0.0
 11
  3.5600
 21
  3.6900
 31
0.0
 0
TEXT
 8
PARTS
 10
  3.5850
 20
  3.7800
 30
0.0
 40
  0.0500
 50
 90.0000
 1
RST
 0
LINE
 8
PARTS
 10
  3.2600
 20
  4.0900
 30
0.0
 11
  3.3600
 21
  4.0900
 31
0.0
 0
TEXT
 8
PARTS
 10
  3.4500
 20
  4.0650
 30
0.0
 40
  0.0500
 1
D
 0
LINE
 8
PARTS
 10
  3.5600
 20
  4.3900
 30
0.0
 11
  3.5600
 21
  4.2900
 31
0.0
 0
TEXT
 8
PARTS
 10
  3.5850
 20
  4.0800
 30
0.0
 40
  0.0500
 50
 90.0000
 1
SET
 0
LINE
 8
PARTS
 10
  3.8600
 20
  4.0900
 30
0.0
 11
  3.7600
 21
  4.0900
 31
0.0
 0
TEXT
 8
PARTS
 10
  3.6300
 20
  4.0650
 30
0.0
 40
  0.0500
 1
Q
 0
CIRCLE
 8
PARTS
 10
  3.7900
 20
  3.8900
 30
0.0
 40
  0.0300
 0
LINE
 8
PARTS
 10
  3.8600
 20
  3.8900
 30
0.0
 11
  3.8200
 21
  3.8900
 31
0.0
 0
TEXT
 8
PARTS
 10
  3.6300
 20
  3.8650
 30
0.0
 40
  0.0500
 1
%%oQ%%o
 0
POLYLINE
 8
PARTS
 66
1
 70
1
 10
0.0
 20
0.0
 30
0.0
 0
VERTEX
 8
PARTS
 10
  3.3600
 20
  4.2900
 30
0.0
 0
VERTEX
 8
PARTS
 10
  3.7600
 20
  4.2900
 30
0.0
 0
VERTEX
 8
PARTS
 10
  3.7600
 20
  3.6900
 30
0.0
 0
VERTEX
 8
PARTS
 10
  3.3600
 20
  3.6900
 30
0.0
 0
SEQEND
 8
PARTS
 0
TEXT
 8
PARTTEXT
 10
  0.0400
 20
  5.7786
 30
0.0
 40
  0.0514
 1
DSTM1
 0
LINE
 8
PARTS
 10
  0.5400
 20
  5.6600
 30
0.0
 11
  0.4400
 21
  5.6600
 31
0.0
 0
POLYLINE
 8
PARTS
 66
1
 10
0.0
 20
0.0
 30
0.0
 0
VERTEX
 8
PARTS
 10
  0.1800
 20
  5.6400
 30
0.0
 0
VERTEX
 8
PARTS
 10
  0.2300
 20
  5.6400
 30
0.0
 0
SEQEND
 8
PARTS
 0
POLYLINE
 8
PARTS
 66
1
 10
0.0
 20
0.0
 30
0.0
 0
VERTEX
 8
PARTS
 10
  0.0400
 20
  5.7100
 30
0.0
 0
VERTEX
 8
PARTS
 10
  0.0400
 20
  5.6100
 30
0.0
 0
SEQEND
 8
PARTS
 0
POLYLINE
 8
PARTS
 66
1
 10
0.0
 20
0.0
 30
0.0
 0
VERTEX
 8
PARTS
 10
  0.0400
 20
  5.6100
 30
0.0
 0
VERTEX
 8
PARTS
 10
  0.3400
 20
  5.6100
 30
0.0
 0
SEQEND
 8
PARTS
 0
POLYLINE
 8
PARTS
 66
1
 10
0.0
 20
0.0
 30
0.0
 0
VERTEX
 8
PARTS
 10
  0.3400
 20
  5.6100
 30
0.0
 0
VERTEX
 8
PARTS
 10
  0.4400
 20
  5.6600
 30
0.0
 0
SEQEND
 8
PARTS
 0
POLYLINE
 8
PARTS
 66
1
 10
0.0
 20
0.0
 30
0.0
 0
VERTEX
 8
PARTS
 10
  0.4400
 20
  5.6600
 30
0.0
 0
VERTEX
 8
PARTS
 10
  0.3400
 20
  5.7100
 30
0.0
 0
SEQEND
 8
PARTS
 0
POLYLINE
 8
PARTS
 66
1
 10
0.0
 20
0.0
 30
0.0
 0
VERTEX
 8
PARTS
 10
  0.3400
 20
  5.7100
 30
0.0
 0
VERTEX
 8
PARTS
 10
  0.0400
 20
  5.7100
 30
0.0
 0
SEQEND
 8
PARTS
 0
TEXT
 8
PARTTEXT
 10
  0.0500
 20
  5.7000
 30
0.0
 40
  0.0400
 1
CLK
 0
POLYLINE
 8
PARTS
 66
1
 10
0.0
 20
0.0
 30
0.0
 0
VERTEX
 8
PARTS
 10
  0.2300
 20
  5.6400
 30
0.0
 0
VERTEX
 8
PARTS
 10
  0.2300
 20
  5.6800
 30
0.0
 0
SEQEND
 8
PARTS
 0
POLYLINE
 8
PARTS
 66
1
 10
0.0
 20
0.0
 30
0.0
 0
VERTEX
 8
PARTS
 10
  0.2300
 20
  5.6800
 30
0.0
 0
VERTEX
 8
PARTS
 10
  0.2800
 20
  5.6800
 30
0.0
 0
SEQEND
 8
PARTS
 0
POLYLINE
 8
PARTS
 66
1
 10
0.0
 20
0.0
 30
0.0
 0
VERTEX
 8
PARTS
 10
  0.2800
 20
  5.6800
 30
0.0
 0
VERTEX
 8
PARTS
 10
  0.2800
 20
  5.6400
 30
0.0
 0
SEQEND
 8
PARTS
 0
POLYLINE
 8
PARTS
 66
1
 10
0.0
 20
0.0
 30
0.0
 0
VERTEX
 8
PARTS
 10
  0.2800
 20
  5.6400
 30
0.0
 0
VERTEX
 8
PARTS
 10
  0.3300
 20
  5.6400
 30
0.0
 0
SEQEND
 8
PARTS
 0
POLYLINE
 8
PARTS
 66
1
 10
0.0
 20
0.0
 30
0.0
 0
VERTEX
 8
PARTS
 10
  0.3300
 20
  5.6400
 30
0.0
 0
VERTEX
 8
PARTS
 10
  0.3300
 20
  5.6800
 30
0.0
 0
SEQEND
 8
PARTS
 0
POLYLINE
 8
PARTS
 66
1
 10
0.0
 20
0.0
 30
0.0
 0
VERTEX
 8
PARTS
 10
  0.3300
 20
  5.6800
 30
0.0
 0
VERTEX
 8
PARTS
 10
  0.3800
 20
  5.6800
 30
0.0
 0
SEQEND
 8
PARTS
 0
TEXT
 8
PARTTEXT
 10
  6.6900
 20
  6.3586
 30
0.0
 40
  0.0514
 1
R1
 0
TEXT
 8
PARTTEXT
 10
  6.6900
 20
  6.1086
 30
0.0
 40
  0.0514
 1
1k
 0
LINE
 8
PARTS
 10
  6.9400
 20
  6.2400
 30
0.0
 11
  6.8400
 21
  6.2400
 31
0.0
 0
LINE
 8
PARTS
 10
  6.5400
 20
  6.2400
 30
0.0
 11
  6.6400
 21
  6.2400
 31
0.0
 0
POLYLINE
 8
PARTS
 66
1
 10
0.0
 20
0.0
 30
0.0
 0
VERTEX
 8
PARTS
 10
  6.6500
 20
  6.2400
 30
0.0
 0
VERTEX
 8
PARTS
 10
  6.6700
 20
  6.2800
 30
0.0
 0
SEQEND
 8
PARTS
 0
POLYLINE
 8
PARTS
 66
1
 10
0.0
 20
0.0
 30
0.0
 0
VERTEX
 8
PARTS
 10
  6.6700
 20
  6.2800
 30
0.0
 0
VERTEX
 8
PARTS
 10
  6.7000
 20
  6.2000
 30
0.0
 0
SEQEND
 8
PARTS
 0
POLYLINE
 8
PARTS
 66
1
 10
0.0
 20
0.0
 30
0.0
 0
VERTEX
 8
PARTS
 10
  6.7000
 20
  6.2000
 30
0.0
 0
VERTEX
 8
PARTS
 10
  6.7300
 20
  6.2800
 30
0.0
 0
SEQEND
 8
PARTS
 0
POLYLINE
 8
PARTS
 66
1
 10
0.0
 20
0.0
 30
0.0
 0
VERTEX
 8
PARTS
 10
  6.7300
 20
  6.2800
 30
0.0
 0
VERTEX
 8
PARTS
 10
  6.7600
 20
  6.2000
 30
0.0
 0
SEQEND
 8
PARTS
 0
POLYLINE
 8
PARTS
 66
1
 10
0.0
 20
0.0
 30
0.0
 0
VERTEX
 8
PARTS
 10
  6.7600
 20
  6.2000
 30
0.0
 0
VERTEX
 8
PARTS
 10
  6.7900
 20
  6.2800
 30
0.0
 0
SEQEND
 8
PARTS
 0
POLYLINE
 8
PARTS
 66
1
 10
0.0
 20
0.0
 30
0.0
 0
VERTEX
 8
PARTS
 10
  6.7900
 20
  6.2800
 30
0.0
 0
VERTEX
 8
PARTS
 10
  6.8200
 20
  6.2000
 30
0.0
 0
SEQEND
 8
PARTS
 0
POLYLINE
 8
PARTS
 66
1
 10
0.0
 20
0.0
 30
0.0
 0
VERTEX
 8
PARTS
 10
  6.8200
 20
  6.2000
 30
0.0
 0
VERTEX
 8
PARTS
 10
  6.8400
 20
  6.2400
 30
0.0
 0
SEQEND
 8
PARTS
 0
POLYLINE
 8
PARTS
 66
1
 10
0.0
 20
0.0
 30
0.0
 0
VERTEX
 8
PARTS
 10
  6.6400
 20
  6.2400
 30
0.0
 0
VERTEX
 8
PARTS
 10
  6.6500
 20
  6.2400
 30
0.0
 0
SEQEND
 8
PARTS
 0
TEXT
 8
PARTTEXT
 10
  2.6500
 20
  6.7886
 30
0.0
 40
  0.0514
 1
U2
 0
TEXT
 8
PARTTEXT
 10
  2.6100
 20
  5.9886
 30
0.0
 40
  0.0514
 1
DFFRS_ABM
 0
LINE
 8
PARTS
 10
  2.2500
 20
  6.3500
 30
0.0
 11
  2.3500
 21
  6.3500
 31
0.0
 0
LINE
 8
PARTS
 10
  2.3500
 20
  6.4100
 30
0.0
 11
  2.4100
 21
  6.3500
 31
0.0
 0
LINE
 8
PARTS
 10
  2.4100
 20
  6.3500
 30
0.0
 11
  2.3500
 21
  6.2900
 31
0.0
 0
TEXT
 8
PARTS
 10
  2.4400
 20
  6.3250
 30
0.0
 40
  0.0500
 1
CLK
 0
LINE
 8
PARTS
 10
  2.5500
 20
  6.0500
 30
0.0
 11
  2.5500
 21
  6.1500
 31
0.0
 0
TEXT
 8
PARTS
 10
  2.5750
 20
  6.2400
 30
0.0
 40
  0.0500
 50
 90.0000
 1
RST
 0
LINE
 8
PARTS
 10
  2.2500
 20
  6.5500
 30
0.0
 11
  2.3500
 21
  6.5500
 31
0.0
 0
TEXT
 8
PARTS
 10
  2.4400
 20
  6.5250
 30
0.0
 40
  0.0500
 1
D
 0
LINE
 8
PARTS
 10
  2.5500
 20
  6.8500
 30
0.0
 11
  2.5500
 21
  6.7500
 31
0.0
 0
TEXT
 8
PARTS
 10
  2.5750
 20
  6.5400
 30
0.0
 40
  0.0500
 50
 90.0000
 1
SET
 0
LINE
 8
PARTS
 10
  2.8500
 20
  6.5500
 30
0.0
 11
  2.7500
 21
  6.5500
 31
0.0
 0
TEXT
 8
PARTS
 10
  2.6200
 20
  6.5250
 30
0.0
 40
  0.0500
 1
Q
 0
CIRCLE
 8
PARTS
 10
  2.7800
 20
  6.3500
 30
0.0
 40
  0.0300
 0
LINE
 8
PARTS
 10
  2.8500
 20
  6.3500
 30
0.0
 11
  2.8100
 21
  6.3500
 31
0.0
 0
TEXT
 8
PARTS
 10
  2.6200
 20
  6.3250
 30
0.0
 40
  0.0500
 1
%%oQ%%o
 0
POLYLINE
 8
PARTS
 66
1
 70
1
 10
0.0
 20
0.0
 30
0.0
 0
VERTEX
 8
PARTS
 10
  2.3500
 20
  6.7500
 30
0.0
 0
VERTEX
 8
PARTS
 10
  2.7500
 20
  6.7500
 30
0.0
 0
VERTEX
 8
PARTS
 10
  2.7500
 20
  6.1500
 30
0.0
 0
VERTEX
 8
PARTS
 10
  2.3500
 20
  6.1500
 30
0.0
 0
SEQEND
 8
PARTS
 0
TEXT
 8
PARTTEXT
 10
  4.5500
 20
  4.3286
 30
0.0
 40
  0.0514
 1
U9
 0
TEXT
 8
PARTTEXT
 10
  4.5100
 20
  3.5286
 30
0.0
 40
  0.0514
 1
DFFRS_ABM
 0
LINE
 8
PARTS
 10
  4.1500
 20
  3.8900
 30
0.0
 11
  4.2500
 21
  3.8900
 31
0.0
 0
LINE
 8
PARTS
 10
  4.2500
 20
  3.9500
 30
0.0
 11
  4.3100
 21
  3.8900
 31
0.0
 0
LINE
 8
PARTS
 10
  4.3100
 20
  3.8900
 30
0.0
 11
  4.2500
 21
  3.8300
 31
0.0
 0
TEXT
 8
PARTS
 10
  4.3400
 20
  3.8650
 30
0.0
 40
  0.0500
 1
CLK
 0
LINE
 8
PARTS
 10
  4.4500
 20
  3.5900
 30
0.0
 11
  4.4500
 21
  3.6900
 31
0.0
 0
TEXT
 8
PARTS
 10
  4.4750
 20
  3.7800
 30
0.0
 40
  0.0500
 50
 90.0000
 1
RST
 0
LINE
 8
PARTS
 10
  4.1500
 20
  4.0900
 30
0.0
 11
  4.2500
 21
  4.0900
 31
0.0
 0
TEXT
 8
PARTS
 10
  4.3400
 20
  4.0650
 30
0.0
 40
  0.0500
 1
D
 0
LINE
 8
PARTS
 10
  4.4500
 20
  4.3900
 30
0.0
 11
  4.4500
 21
  4.2900
 31
0.0
 0
TEXT
 8
PARTS
 10
  4.4750
 20
  4.0800
 30
0.0
 40
  0.0500
 50
 90.0000
 1
SET
 0
LINE
 8
PARTS
 10
  4.7500
 20
  4.0900
 30
0.0
 11
  4.6500
 21
  4.0900
 31
0.0
 0
TEXT
 8
PARTS
 10
  4.5200
 20
  4.0650
 30
0.0
 40
  0.0500
 1
Q
 0
CIRCLE
 8
PARTS
 10
  4.6800
 20
  3.8900
 30
0.0
 40
  0.0300
 0
LINE
 8
PARTS
 10
  4.7500
 20
  3.8900
 30
0.0
 11
  4.7100
 21
  3.8900
 31
0.0
 0
TEXT
 8
PARTS
 10
  4.5200
 20
  3.8650
 30
0.0
 40
  0.0500
 1
%%oQ%%o
 0
POLYLINE
 8
PARTS
 66
1
 70
1
 10
0.0
 20
0.0
 30
0.0
 0
VERTEX
 8
PARTS
 10
  4.2500
 20
  4.2900
 30
0.0
 0
VERTEX
 8
PARTS
 10
  4.6500
 20
  4.2900
 30
0.0
 0
VERTEX
 8
PARTS
 10
  4.6500
 20
  3.6900
 30
0.0
 0
VERTEX
 8
PARTS
 10
  4.2500
 20
  3.6900
 30
0.0
 0
SEQEND
 8
PARTS
 0
TEXT
 8
PARTTEXT
 10
  6.8100
 20
  2.8986
 30
0.0
 40
  0.0514
 1
U12
 0
TEXT
 8
PARTTEXT
 10
  6.5100
 20
  2.1986
 30
0.0
 40
  0.0514
 1
LM741
 0
LINE
 8
PARTS
 10
  6.6700
 20
  2.7800
 30
0.0
 11
  6.7700
 21
  2.7800
 31
0.0
 0
TEXT
 8
PARTS
 10
  6.8600
 20
  2.7550
 30
0.0
 40
  0.0500
 1
+
 0
TEXT
 8
PARTS
 10
  6.6700
 20
  2.8100
 30
0.0
 40
  0.0500
 1
3
 0
LINE
 8
PARTS
 10
  6.6700
 20
  2.3800
 30
0.0
 11
  6.7700
 21
  2.3800
 31
0.0
 0
TEXT
 8
PARTS
 10
  6.8600
 20
  2.3550
 30
0.0
 40
  0.0500
 1
-
 0
TEXT
 8
PARTS
 10
  6.6700
 20
  2.4100
 30
0.0
 40
  0.0500
 1
2
 0
TEXT
 8
PARTS
 10
  7.0950
 20
  2.7100
 30
0.0
 40
  0.0500
 50
 90.0000
 1
V+
 0
TEXT
 8
PARTS
 10
  7.0400
 20
  2.9400
 30
0.0
 40
  0.0500
 50
 90.0000
 1
7
 0
TEXT
 8
PARTS
 10
  7.0950
 20
  2.3700
 30
0.0
 40
  0.0500
 50
 90.0000
 1
V-
 0
TEXT
 8
PARTS
 10
  7.0400
 20
  2.1600
 30
0.0
 40
  0.0500
 50
 90.0000
 1
4
 0
LINE
 8
PARTS
 10
  7.4700
 20
  2.5800
 30
0.0
 11
  7.3700
 21
  2.5800
 31
0.0
 0
TEXT
 8
PARTS
 10
  7.1600
 20
  2.5550
 30
0.0
 40
  0.0500
 1
OUT
 0
TEXT
 8
PARTS
 10
  7.4300
 20
  2.6100
 30
0.0
 40
  0.0500
 1
6
 0
LINE
 8
PARTS
 10
  7.4700
 20
  2.3800
 30
0.0
 11
  7.3700
 21
  2.3800
 31
0.0
 0
TEXT
 8
PARTS
 10
  7.1600
 20
  2.3550
 30
0.0
 40
  0.0500
 1
OS1
 0
TEXT
 8
PARTS
 10
  7.4300
 20
  2.4100
 30
0.0
 40
  0.0500
 1
1
 0
LINE
 8
PARTS
 10
  7.4700
 20
  2.7800
 30
0.0
 11
  7.3700
 21
  2.7800
 31
0.0
 0
TEXT
 8
PARTS
 10
  7.1600
 20
  2.7550
 30
0.0
 40
  0.0500
 1
OS2
 0
TEXT
 8
PARTS
 10
  7.4300
 20
  2.8100
 30
0.0
 40
  0.0500
 1
5
 0
POLYLINE
 8
PARTS
 66
1
 10
0.0
 20
0.0
 30
0.0
 0
VERTEX
 8
PARTS
 10
  7.0700
 20
  2.3800
 30
0.0
 0
VERTEX
 8
PARTS
 10
  7.0700
 20
  2.4300
 30
0.0
 0
SEQEND
 8
PARTS
 0
POLYLINE
 8
PARTS
 66
1
 10
0.0
 20
0.0
 30
0.0
 0
VERTEX
 8
PARTS
 10
  6.7700
 20
  2.2800
 30
0.0
 0
VERTEX
 8
PARTS
 10
  7.3700
 20
  2.5800
 30
0.0
 0
SEQEND
 8
PARTS
 0
POLYLINE
 8
PARTS
 66
1
 10
0.0
 20
0.0
 30
0.0
 0
VERTEX
 8
PARTS
 10
  7.3700
 20
  2.5800
 30
0.0
 0
VERTEX
 8
PARTS
 10
  6.7700
 20
  2.8800
 30
0.0
 0
SEQEND
 8
PARTS
 0
POLYLINE
 8
PARTS
 66
1
 10
0.0
 20
0.0
 30
0.0
 0
VERTEX
 8
PARTS
 10
  7.0700
 20
  2.7800
 30
0.0
 0
VERTEX
 8
PARTS
 10
  7.0700
 20
  2.7300
 30
0.0
 0
SEQEND
 8
PARTS
 0
POLYLINE
 8
PARTS
 66
1
 10
0.0
 20
0.0
 30
0.0
 0
VERTEX
 8
PARTS
 10
  6.7700
 20
  2.8800
 30
0.0
 0
VERTEX
 8
PARTS
 10
  6.7700
 20
  2.2800
 30
0.0
 0
SEQEND
 8
PARTS
 0
POLYLINE
 8
PARTS
 66
1
 10
0.0
 20
0.0
 30
0.0
 0
VERTEX
 8
PARTS
 10
  7.2700
 20
  2.7800
 30
0.0
 0
VERTEX
 8
PARTS
 10
  7.1700
 20
  2.6800
 30
0.0
 0
SEQEND
 8
PARTS
 0
POLYLINE
 8
PARTS
 66
1
 10
0.0
 20
0.0
 30
0.0
 0
VERTEX
 8
PARTS
 10
  7.1700
 20
  2.4800
 30
0.0
 0
VERTEX
 8
PARTS
 10
  7.2700
 20
  2.3800
 30
0.0
 0
SEQEND
 8
PARTS
 0
POLYLINE
 8
PARTS
 66
1
 10
0.0
 20
0.0
 30
0.0
 0
VERTEX
 8
PARTS
 10
  7.2700
 20
  2.7800
 30
0.0
 0
VERTEX
 8
PARTS
 10
  7.3700
 20
  2.7800
 30
0.0
 0
SEQEND
 8
PARTS
 0
POLYLINE
 8
PARTS
 66
1
 10
0.0
 20
0.0
 30
0.0
 0
VERTEX
 8
PARTS
 10
  7.2700
 20
  2.3800
 30
0.0
 0
VERTEX
 8
PARTS
 10
  7.3700
 20
  2.3800
 30
0.0
 0
SEQEND
 8
PARTS
 0
POLYLINE
 8
PARTS
 66
1
 10
0.0
 20
0.0
 30
0.0
 0
VERTEX
 8
PARTS
 10
  7.0700
 20
  2.7800
 30
0.0
 0
VERTEX
 8
PARTS
 10
  7.0700
 20
  2.8800
 30
0.0
 0
SEQEND
 8
PARTS
 0
POLYLINE
 8
PARTS
 66
1
 10
0.0
 20
0.0
 30
0.0
 0
VERTEX
 8
PARTS
 10
  7.0700
 20
  2.3800
 30
0.0
 0
VERTEX
 8
PARTS
 10
  7.0700
 20
  2.2800
 30
0.0
 0
SEQEND
 8
PARTS
 0
TEXT
 8
PARTTEXT
 10
  8.4300
 20
  2.0986
 30
0.0
 40
  0.0514
 1
R7
 0
TEXT
 8
PARTTEXT
 10
  8.4300
 20
  1.9786
 30
0.0
 40
  0.0514
 1
50
 0
LINE
 8
PARTS
 10
  8.2700
 20
  2.2800
 30
0.0
 11
  8.2700
 21
  2.1800
 31
0.0
 0
LINE
 8
PARTS
 10
  8.2700
 20
  1.8800
 30
0.0
 11
  8.2700
 21
  1.9800
 31
0.0
 0
POLYLINE
 8
PARTS
 66
1
 10
0.0
 20
0.0
 30
0.0
 0
VERTEX
 8
PARTS
 10
  8.2700
 20
  1.9900
 30
0.0
 0
VERTEX
 8
PARTS
 10
  8.2300
 20
  2.0100
 30
0.0
 0
SEQEND
 8
PARTS
 0
POLYLINE
 8
PARTS
 66
1
 10
0.0
 20
0.0
 30
0.0
 0
VERTEX
 8
PARTS
 10
  8.2300
 20
  2.0100
 30
0.0
 0
VERTEX
 8
PARTS
 10
  8.3100
 20
  2.0400
 30
0.0
 0
SEQEND
 8
PARTS
 0
POLYLINE
 8
PARTS
 66
1
 10
0.0
 20
0.0
 30
0.0
 0
VERTEX
 8
PARTS
 10
  8.3100
 20
  2.0400
 30
0.0
 0
VERTEX
 8
PARTS
 10
  8.2300
 20
  2.0700
 30
0.0
 0
SEQEND
 8
PARTS
 0
POLYLINE
 8
PARTS
 66
1
 10
0.0
 20
0.0
 30
0.0
 0
VERTEX
 8
PARTS
 10
  8.2300
 20
  2.0700
 30
0.0
 0
VERTEX
 8
PARTS
 10
  8.3100
 20
  2.1000
 30
0.0
 0
SEQEND
 8
PARTS
 0
POLYLINE
 8
PARTS
 66
1
 10
0.0
 20
0.0
 30
0.0
 0
VERTEX
 8
PARTS
 10
  8.3100
 20
  2.1000
 30
0.0
 0
VERTEX
 8
PARTS
 10
  8.2300
 20
  2.1300
 30
0.0
 0
SEQEND
 8
PARTS
 0
POLYLINE
 8
PARTS
 66
1
 10
0.0
 20
0.0
 30
0.0
 0
VERTEX
 8
PARTS
 10
  8.2300
 20
  2.1300
 30
0.0
 0
VERTEX
 8
PARTS
 10
  8.3100
 20
  2.1600
 30
0.0
 0
SEQEND
 8
PARTS
 0
POLYLINE
 8
PARTS
 66
1
 10
0.0
 20
0.0
 30
0.0
 0
VERTEX
 8
PARTS
 10
  8.3100
 20
  2.1600
 30
0.0
 0
VERTEX
 8
PARTS
 10
  8.2700
 20
  2.1800
 30
0.0
 0
SEQEND
 8
PARTS
 0
POLYLINE
 8
PARTS
 66
1
 10
0.0
 20
0.0
 30
0.0
 0
VERTEX
 8
PARTS
 10
  8.2700
 20
  1.9800
 30
0.0
 0
VERTEX
 8
PARTS
 10
  8.2700
 20
  1.9900
 30
0.0
 0
SEQEND
 8
PARTS
 0
TEXT
 8
PARTTEXT
 10
  7.8000
 20
  5.7986
 30
0.0
 40
  0.0514
 1
U11
 0
TEXT
 8
PARTTEXT
 10
  8.1600
 20
  5.1986
 30
0.0
 40
  0.0514
 1
OPAMP
 0
LINE
 8
PARTS
 10
  7.6600
 20
  5.6800
 30
0.0
 11
  7.7600
 21
  5.6800
 31
0.0
 0
TEXT
 8
PARTS
 10
  7.8500
 20
  5.6550
 30
0.0
 40
  0.0500
 1
+
 0
LINE
 8
PARTS
 10
  7.6600
 20
  5.2800
 30
0.0
 11
  7.7600
 21
  5.2800
 31
0.0
 0
TEXT
 8
PARTS
 10
  7.8500
 20
  5.2550
 30
0.0
 40
  0.0500
 1
-
 0
LINE
 8
PARTS
 10
  8.4600
 20
  5.4800
 30
0.0
 11
  8.3600
 21
  5.4800
 31
0.0
 0
TEXT
 8
PARTS
 10
  8.1500
 20
  5.4550
 30
0.0
 40
  0.0500
 1
OUT
 0
POLYLINE
 8
PARTS
 66
1
 10
0.0
 20
0.0
 30
0.0
 0
VERTEX
 8
PARTS
 10
  7.7600
 20
  5.1800
 30
0.0
 0
VERTEX
 8
PARTS
 10
  8.3600
 20
  5.4800
 30
0.0
 0
SEQEND
 8
PARTS
 0
POLYLINE
 8
PARTS
 66
1
 10
0.0
 20
0.0
 30
0.0
 0
VERTEX
 8
PARTS
 10
  8.3600
 20
  5.4800
 30
0.0
 0
VERTEX
 8
PARTS
 10
  7.7600
 20
  5.7800
 30
0.0
 0
SEQEND
 8
PARTS
 0
POLYLINE
 8
PARTS
 66
1
 10
0.0
 20
0.0
 30
0.0
 0
VERTEX
 8
PARTS
 10
  7.7600
 20
  5.7800
 30
0.0
 0
VERTEX
 8
PARTS
 10
  7.7600
 20
  5.1800
 30
0.0
 0
SEQEND
 8
PARTS
 0
TEXT
 8
PARTTEXT
 10
  6.7000
 20
  4.7286
 30
0.0
 40
  0.0514
 1
R4
 0
TEXT
 8
PARTTEXT
 10
  6.7100
 20
  4.4786
 30
0.0
 40
  0.0514
 1
8k
 0
LINE
 8
PARTS
 10
  6.9500
 20
  4.6100
 30
0.0
 11
  6.8500
 21
  4.6100
 31
0.0
 0
LINE
 8
PARTS
 10
  6.5500
 20
  4.6100
 30
0.0
 11
  6.6500
 21
  4.6100
 31
0.0
 0
POLYLINE
 8
PARTS
 66
1
 10
0.0
 20
0.0
 30
0.0
 0
VERTEX
 8
PARTS
 10
  6.6600
 20
  4.6100
 30
0.0
 0
VERTEX
 8
PARTS
 10
  6.6800
 20
  4.6500
 30
0.0
 0
SEQEND
 8
PARTS
 0
POLYLINE
 8
PARTS
 66
1
 10
0.0
 20
0.0
 30
0.0
 0
VERTEX
 8
PARTS
 10
  6.6800
 20
  4.6500
 30
0.0
 0
VERTEX
 8
PARTS
 10
  6.7100
 20
  4.5700
 30
0.0
 0
SEQEND
 8
PARTS
 0
POLYLINE
 8
PARTS
 66
1
 10
0.0
 20
0.0
 30
0.0
 0
VERTEX
 8
PARTS
 10
  6.7100
 20
  4.5700
 30
0.0
 0
VERTEX
 8
PARTS
 10
  6.7400
 20
  4.6500
 30
0.0
 0
SEQEND
 8
PARTS
 0
POLYLINE
 8
PARTS
 66
1
 10
0.0
 20
0.0
 30
0.0
 0
VERTEX
 8
PARTS
 10
  6.7400
 20
  4.6500
 30
0.0
 0
VERTEX
 8
PARTS
 10
  6.7700
 20
  4.5700
 30
0.0
 0
SEQEND
 8
PARTS
 0
POLYLINE
 8
PARTS
 66
1
 10
0.0
 20
0.0
 30
0.0
 0
VERTEX
 8
PARTS
 10
  6.7700
 20
  4.5700
 30
0.0
 0
VERTEX
 8
PARTS
 10
  6.8000
 20
  4.6500
 30
0.0
 0
SEQEND
 8
PARTS
 0
POLYLINE
 8
PARTS
 66
1
 10
0.0
 20
0.0
 30
0.0
 0
VERTEX
 8
PARTS
 10
  6.8000
 20
  4.6500
 30
0.0
 0
VERTEX
 8
PARTS
 10
  6.8300
 20
  4.5700
 30
0.0
 0
SEQEND
 8
PARTS
 0
POLYLINE
 8
PARTS
 66
1
 10
0.0
 20
0.0
 30
0.0
 0
VERTEX
 8
PARTS
 10
  6.8300
 20
  4.5700
 30
0.0
 0
VERTEX
 8
PARTS
 10
  6.8500
 20
  4.6100
 30
0.0
 0
SEQEND
 8
PARTS
 0
POLYLINE
 8
PARTS
 66
1
 10
0.0
 20
0.0
 30
0.0
 0
VERTEX
 8
PARTS
 10
  6.6500
 20
  4.6100
 30
0.0
 0
VERTEX
 8
PARTS
 10
  6.6600
 20
  4.6100
 30
0.0
 0
SEQEND
 8
PARTS
 0
TEXT
 8
PARTTEXT
 10
  3.6900
 20
  6.7686
 30
0.0
 40
  0.0514
 1
U3
 0
TEXT
 8
PARTTEXT
 10
  3.6500
 20
  5.9686
 30
0.0
 40
  0.0514
 1
DFFRS_ABM
 0
LINE
 8
PARTS
 10
  3.2900
 20
  6.3300
 30
0.0
 11
  3.3900
 21
  6.3300
 31
0.0
 0
LINE
 8
PARTS
 10
  3.3900
 20
  6.3900
 30
0.0
 11
  3.4500
 21
  6.3300
 31
0.0
 0
LINE
 8
PARTS
 10
  3.4500
 20
  6.3300
 30
0.0
 11
  3.3900
 21
  6.2700
 31
0.0
 0
TEXT
 8
PARTS
 10
  3.4800
 20
  6.3050
 30
0.0
 40
  0.0500
 1
CLK
 0
LINE
 8
PARTS
 10
  3.5900
 20
  6.0300
 30
0.0
 11
  3.5900
 21
  6.1300
 31
0.0
 0
TEXT
 8
PARTS
 10
  3.6150
 20
  6.2200
 30
0.0
 40
  0.0500
 50
 90.0000
 1
RST
 0
LINE
 8
PARTS
 10
  3.2900
 20
  6.5300
 30
0.0
 11
  3.3900
 21
  6.5300
 31
0.0
 0
TEXT
 8
PARTS
 10
  3.4800
 20
  6.5050
 30
0.0
 40
  0.0500
 1
D
 0
LINE
 8
PARTS
 10
  3.5900
 20
  6.8300
 30
0.0
 11
  3.5900
 21
  6.7300
 31
0.0
 0
TEXT
 8
PARTS
 10
  3.6150
 20
  6.5200
 30
0.0
 40
  0.0500
 50
 90.0000
 1
SET
 0
LINE
 8
PARTS
 10
  3.8900
 20
  6.5300
 30
0.0
 11
  3.7900
 21
  6.5300
 31
0.0
 0
TEXT
 8
PARTS
 10
  3.6600
 20
  6.5050
 30
0.0
 40
  0.0500
 1
Q
 0
CIRCLE
 8
PARTS
 10
  3.8200
 20
  6.3300
 30
0.0
 40
  0.0300
 0
LINE
 8
PARTS
 10
  3.8900
 20
  6.3300
 30
0.0
 11
  3.8500
 21
  6.3300
 31
0.0
 0
TEXT
 8
PARTS
 10
  3.6600
 20
  6.3050
 30
0.0
 40
  0.0500
 1
%%oQ%%o
 0
POLYLINE
 8
PARTS
 66
1
 70
1
 10
0.0
 20
0.0
 30
0.0
 0
VERTEX
 8
PARTS
 10
  3.3900
 20
  6.7300
 30
0.0
 0
VERTEX
 8
PARTS
 10
  3.7900
 20
  6.7300
 30
0.0
 0
VERTEX
 8
PARTS
 10
  3.7900
 20
  6.1300
 30
0.0
 0
VERTEX
 8
PARTS
 10
  3.3900
 20
  6.1300
 30
0.0
 0
SEQEND
 8
PARTS
 0
TEXT
 8
PARTTEXT
 10
  5.4700
 20
  4.3286
 30
0.0
 40
  0.0514
 1
U10
 0
TEXT
 8
PARTTEXT
 10
  5.4300
 20
  3.5286
 30
0.0
 40
  0.0514
 1
DFFRS_ABM
 0
LINE
 8
PARTS
 10
  5.0700
 20
  3.8900
 30
0.0
 11
  5.1700
 21
  3.8900
 31
0.0
 0
LINE
 8
PARTS
 10
  5.1700
 20
  3.9500
 30
0.0
 11
  5.2300
 21
  3.8900
 31
0.0
 0
LINE
 8
PARTS
 10
  5.2300
 20
  3.8900
 30
0.0
 11
  5.1700
 21
  3.8300
 31
0.0
 0
TEXT
 8
PARTS
 10
  5.2600
 20
  3.8650
 30
0.0
 40
  0.0500
 1
CLK
 0
LINE
 8
PARTS
 10
  5.3700
 20
  3.5900
 30
0.0
 11
  5.3700
 21
  3.6900
 31
0.0
 0
TEXT
 8
PARTS
 10
  5.3950
 20
  3.7800
 30
0.0
 40
  0.0500
 50
 90.0000
 1
RST
 0
LINE
 8
PARTS
 10
  5.0700
 20
  4.0900
 30
0.0
 11
  5.1700
 21
  4.0900
 31
0.0
 0
TEXT
 8
PARTS
 10
  5.2600
 20
  4.0650
 30
0.0
 40
  0.0500
 1
D
 0
LINE
 8
PARTS
 10
  5.3700
 20
  4.3900
 30
0.0
 11
  5.3700
 21
  4.2900
 31
0.0
 0
TEXT
 8
PARTS
 10
  5.3950
 20
  4.0800
 30
0.0
 40
  0.0500
 50
 90.0000
 1
SET
 0
LINE
 8
PARTS
 10
  5.6700
 20
  4.0900
 30
0.0
 11
  5.5700
 21
  4.0900
 31
0.0
 0
TEXT
 8
PARTS
 10
  5.4400
 20
  4.0650
 30
0.0
 40
  0.0500
 1
Q
 0
CIRCLE
 8
PARTS
 10
  5.6000
 20
  3.8900
 30
0.0
 40
  0.0300
 0
LINE
 8
PARTS
 10
  5.6700
 20
  3.8900
 30
0.0
 11
  5.6300
 21
  3.8900
 31
0.0
 0
TEXT
 8
PARTS
 10
  5.4400
 20
  3.8650
 30
0.0
 40
  0.0500
 1
%%oQ%%o
 0
POLYLINE
 8
PARTS
 66
1
 70
1
 10
0.0
 20
0.0
 30
0.0
 0
VERTEX
 8
PARTS
 10
  5.1700
 20
  4.2900
 30
0.0
 0
VERTEX
 8
PARTS
 10
  5.5700
 20
  4.2900
 30
0.0
 0
VERTEX
 8
PARTS
 10
  5.5700
 20
  3.6900
 30
0.0
 0
VERTEX
 8
PARTS
 10
  5.1700
 20
  3.6900
 30
0.0
 0
SEQEND
 8
PARTS
 0
POLYLINE
 8
WIRE
 66
1
 10
0.0
 20
0.0
 30
0.0
 0
VERTEX
 8
WIRE
 10
  0.4300
 20
  6.9600
 30
0.0
 0
VERTEX
 8
WIRE
 10
  1.5500
 20
  6.9600
 30
0.0
 0
SEQEND
 8
WIRE
 0
POLYLINE
 8
WIRE
 66
1
 70
1
 10
0.0
 20
0.0
 30
0.0
 40
  0.0200
 41
  0.0200
 0
VERTEX
 8
WIRE
 10
  1.5400
 20
  6.9600
 30
0.0
 42
1.0
 0
VERTEX
 8
WIRE
 10
  1.5600
 20
  6.9600
 30
0.0
 42
1.0
 0
SEQEND
 8
WIRE
 0
POLYLINE
 8
WIRE
 66
1
 10
0.0
 20
0.0
 30
0.0
 0
VERTEX
 8
WIRE
 10
  1.5500
 20
  6.9600
 30
0.0
 0
VERTEX
 8
WIRE
 10
  2.0000
 20
  6.9600
 30
0.0
 0
SEQEND
 8
WIRE
 0
POLYLINE
 8
WIRE
 66
1
 10
0.0
 20
0.0
 30
0.0
 0
VERTEX
 8
WIRE
 10
  1.5500
 20
  6.9600
 30
0.0
 0
VERTEX
 8
WIRE
 10
  1.5500
 20
  6.8500
 30
0.0
 0
SEQEND
 8
WIRE
 0
POLYLINE
 8
WIRE
 66
1
 10
0.0
 20
0.0
 30
0.0
 0
VERTEX
 8
WIRE
 10
  2.0000
 20
  6.9600
 30
0.0
 0
VERTEX
 8
WIRE
 10
  2.0000
 20
  5.9300
 30
0.0
 0
SEQEND
 8
WIRE
 0
POLYLINE
 8
WIRE
 66
1
 10
0.0
 20
0.0
 30
0.0
 0
VERTEX
 8
WIRE
 10
  1.2500
 20
  6.5500
 30
0.0
 0
VERTEX
 8
WIRE
 10
  1.1100
 20
  6.5500
 30
0.0
 0
SEQEND
 8
WIRE
 0
POLYLINE
 8
WIRE
 66
1
 10
0.0
 20
0.0
 30
0.0
 0
VERTEX
 8
WIRE
 10
  1.1100
 20
  6.5500
 30
0.0
 0
VERTEX
 8
WIRE
 10
  1.1100
 20
  5.9500
 30
0.0
 0
SEQEND
 8
WIRE
 0
POLYLINE
 8
WIRE
 66
1
 10
0.0
 20
0.0
 30
0.0
 0
VERTEX
 8
WIRE
 10
  1.8500
 20
  6.5500
 30
0.0
 0
VERTEX
 8
WIRE
 10
  2.0600
 20
  6.5500
 30
0.0
 0
SEQEND
 8
WIRE
 0
POLYLINE
 8
WIRE
 66
1
 10
0.0
 20
0.0
 30
0.0
 0
VERTEX
 8
WIRE
 10
  2.0600
 20
  6.5500
 30
0.0
 0
VERTEX
 8
WIRE
 10
  2.2500
 20
  6.5500
 30
0.0
 0
SEQEND
 8
WIRE
 0
POLYLINE
 8
WIRE
 66
1
 10
0.0
 20
0.0
 30
0.0
 0
VERTEX
 8
WIRE
 10
  2.8500
 20
  6.5300
 30
0.0
 0
VERTEX
 8
WIRE
 10
  2.8500
 20
  6.5500
 30
0.0
 0
SEQEND
 8
WIRE
 0
POLYLINE
 8
WIRE
 66
1
 10
0.0
 20
0.0
 30
0.0
 0
VERTEX
 8
WIRE
 10
  2.8500
 20
  6.5300
 30
0.0
 0
VERTEX
 8
WIRE
 10
  3.0300
 20
  6.5300
 30
0.0
 0
SEQEND
 8
WIRE
 0
POLYLINE
 8
WIRE
 66
1
 10
0.0
 20
0.0
 30
0.0
 0
VERTEX
 8
WIRE
 10
  3.0300
 20
  5.7700
 30
0.0
 0
VERTEX
 8
WIRE
 10
  3.0300
 20
  6.5300
 30
0.0
 0
SEQEND
 8
WIRE
 0
POLYLINE
 8
WIRE
 66
1
 70
1
 10
0.0
 20
0.0
 30
0.0
 40
  0.0200
 41
  0.0200
 0
VERTEX
 8
WIRE
 10
  3.0200
 20
  6.5300
 30
0.0
 42
1.0
 0
VERTEX
 8
WIRE
 10
  3.0400
 20
  6.5300
 30
0.0
 42
1.0
 0
SEQEND
 8
WIRE
 0
POLYLINE
 8
WIRE
 66
1
 10
0.0
 20
0.0
 30
0.0
 0
VERTEX
 8
WIRE
 10
  3.0300
 20
  6.5300
 30
0.0
 0
VERTEX
 8
WIRE
 10
  3.2900
 20
  6.5300
 30
0.0
 0
SEQEND
 8
WIRE
 0
POLYLINE
 8
WIRE
 66
1
 70
1
 10
0.0
 20
0.0
 30
0.0
 40
  0.0200
 41
  0.0200
 0
VERTEX
 8
WIRE
 10
  3.2800
 20
  6.5300
 30
0.0
 42
1.0
 0
VERTEX
 8
WIRE
 10
  3.3000
 20
  6.5300
 30
0.0
 42
1.0
 0
SEQEND
 8
WIRE
 0
POLYLINE
 8
WIRE
 66
1
 10
0.0
 20
0.0
 30
0.0
 0
VERTEX
 8
WIRE
 10
  3.2900
 20
  6.5300
 30
0.0
 0
VERTEX
 8
WIRE
 10
  3.3100
 20
  6.5300
 30
0.0
 0
SEQEND
 8
WIRE
 0
POLYLINE
 8
WIRE
 66
1
 10
0.0
 20
0.0
 30
0.0
 0
VERTEX
 8
WIRE
 10
  3.8900
 20
  6.5300
 30
0.0
 0
VERTEX
 8
WIRE
 10
  4.0300
 20
  6.5300
 30
0.0
 0
SEQEND
 8
WIRE
 0
POLYLINE
 8
WIRE
 66
1
 10
0.0
 20
0.0
 30
0.0
 0
VERTEX
 8
WIRE
 10
  4.0300
 20
  6.5300
 30
0.0
 0
VERTEX
 8
WIRE
 10
  4.0300
 20
  5.7100
 30
0.0
 0
SEQEND
 8
WIRE
 0
POLYLINE
 8
WIRE
 66
1
 70
1
 10
0.0
 20
0.0
 30
0.0
 40
  0.0200
 41
  0.0200
 0
VERTEX
 8
WIRE
 10
  4.0200
 20
  6.5300
 30
0.0
 42
1.0
 0
VERTEX
 8
WIRE
 10
  4.0400
 20
  6.5300
 30
0.0
 42
1.0
 0
SEQEND
 8
WIRE
 0
POLYLINE
 8
WIRE
 66
1
 10
0.0
 20
0.0
 30
0.0
 0
VERTEX
 8
WIRE
 10
  4.0300
 20
  6.5300
 30
0.0
 0
VERTEX
 8
WIRE
 10
  4.1800
 20
  6.5300
 30
0.0
 0
SEQEND
 8
WIRE
 0
POLYLINE
 8
WIRE
 66
1
 10
0.0
 20
0.0
 30
0.0
 0
VERTEX
 8
WIRE
 10
  4.7800
 20
  6.5300
 30
0.0
 0
VERTEX
 8
WIRE
 10
  4.9500
 20
  6.5300
 30
0.0
 0
SEQEND
 8
WIRE
 0
POLYLINE
 8
WIRE
 66
1
 70
1
 10
0.0
 20
0.0
 30
0.0
 40
  0.0200
 41
  0.0200
 0
VERTEX
 8
WIRE
 10
  4.9400
 20
  6.5300
 30
0.0
 42
1.0
 0
VERTEX
 8
WIRE
 10
  4.9600
 20
  6.5300
 30
0.0
 42
1.0
 0
SEQEND
 8
WIRE
 0
POLYLINE
 8
WIRE
 66
1
 10
0.0
 20
0.0
 30
0.0
 0
VERTEX
 8
WIRE
 10
  4.9500
 20
  6.5300
 30
0.0
 0
VERTEX
 8
WIRE
 10
  4.9500
 20
  6.1800
 30
0.0
 0
SEQEND
 8
WIRE
 0
POLYLINE
 8
WIRE
 66
1
 10
0.0
 20
0.0
 30
0.0
 0
VERTEX
 8
WIRE
 10
  4.9500
 20
  6.5300
 30
0.0
 0
VERTEX
 8
WIRE
 10
  5.1000
 20
  6.5300
 30
0.0
 0
SEQEND
 8
WIRE
 0
POLYLINE
 8
WIRE
 66
1
 70
1
 10
0.0
 20
0.0
 30
0.0
 40
  0.0200
 41
  0.0200
 0
VERTEX
 8
WIRE
 10
  5.0900
 20
  6.5300
 30
0.0
 42
1.0
 0
VERTEX
 8
WIRE
 10
  5.1100
 20
  6.5300
 30
0.0
 42
1.0
 0
SEQEND
 8
WIRE
 0
POLYLINE
 8
WIRE
 66
1
 10
0.0
 20
0.0
 30
0.0
 0
VERTEX
 8
WIRE
 10
  5.1000
 20
  6.5300
 30
0.0
 0
VERTEX
 8
WIRE
 10
  5.1100
 20
  6.5300
 30
0.0
 0
SEQEND
 8
WIRE
 0
POLYLINE
 8
WIRE
 66
1
 10
0.0
 20
0.0
 30
0.0
 0
VERTEX
 8
WIRE
 10
  5.7000
 20
  6.5300
 30
0.0
 0
VERTEX
 8
WIRE
 10
  5.8400
 20
  6.5300
 30
0.0
 0
SEQEND
 8
WIRE
 0
POLYLINE
 8
WIRE
 66
1
 10
0.0
 20
0.0
 30
0.0
 0
VERTEX
 8
WIRE
 10
  5.8400
 20
  5.7300
 30
0.0
 0
VERTEX
 8
WIRE
 10
  5.8400
 20
  6.5300
 30
0.0
 0
SEQEND
 8
WIRE
 0
POLYLINE
 8
WIRE
 66
1
 10
0.0
 20
0.0
 30
0.0
 0
VERTEX
 8
WIRE
 10
  0.8200
 20
  6.3500
 30
0.0
 0
VERTEX
 8
WIRE
 10
  1.2500
 20
  6.3500
 30
0.0
 0
SEQEND
 8
WIRE
 0
POLYLINE
 8
WIRE
 66
1
 70
1
 10
0.0
 20
0.0
 30
0.0
 40
  0.0200
 41
  0.0200
 0
VERTEX
 8
WIRE
 10
  1.2400
 20
  6.3500
 30
0.0
 42
1.0
 0
VERTEX
 8
WIRE
 10
  1.2600
 20
  6.3500
 30
0.0
 42
1.0
 0
SEQEND
 8
WIRE
 0
POLYLINE
 8
WIRE
 66
1
 10
0.0
 20
0.0
 30
0.0
 0
VERTEX
 8
WIRE
 10
  0.8200
 20
  5.6600
 30
0.0
 0
VERTEX
 8
WIRE
 10
  0.8200
 20
  6.3500
 30
0.0
 0
SEQEND
 8
WIRE
 0
POLYLINE
 8
WIRE
 66
1
 10
0.0
 20
0.0
 30
0.0
 0
VERTEX
 8
WIRE
 10
  1.2500
 20
  6.3500
 30
0.0
 0
VERTEX
 8
WIRE
 10
  1.2600
 20
  6.3500
 30
0.0
 0
SEQEND
 8
WIRE
 0
POLYLINE
 8
WIRE
 66
1
 10
0.0
 20
0.0
 30
0.0
 0
VERTEX
 8
WIRE
 10
  2.2500
 20
  6.3500
 30
0.0
 0
VERTEX
 8
WIRE
 10
  2.1800
 20
  6.3500
 30
0.0
 0
SEQEND
 8
WIRE
 0
POLYLINE
 8
WIRE
 66
1
 10
0.0
 20
0.0
 30
0.0
 0
VERTEX
 8
WIRE
 10
  2.1800
 20
  6.3500
 30
0.0
 0
VERTEX
 8
WIRE
 10
  2.1800
 20
  5.6500
 30
0.0
 0
SEQEND
 8
WIRE
 0
POLYLINE
 8
WIRE
 66
1
 10
0.0
 20
0.0
 30
0.0
 0
VERTEX
 8
WIRE
 10
  3.2900
 20
  6.3300
 30
0.0
 0
VERTEX
 8
WIRE
 10
  3.2900
 20
  5.6500
 30
0.0
 0
SEQEND
 8
WIRE
 0
POLYLINE
 8
WIRE
 66
1
 10
0.0
 20
0.0
 30
0.0
 0
VERTEX
 8
WIRE
 10
  4.1800
 20
  6.3300
 30
0.0
 0
VERTEX
 8
WIRE
 10
  4.1800
 20
  5.7600
 30
0.0
 0
SEQEND
 8
WIRE
 0
POLYLINE
 8
WIRE
 66
1
 10
0.0
 20
0.0
 30
0.0
 0
VERTEX
 8
WIRE
 10
  5.0100
 20
  5.6500
 30
0.0
 0
VERTEX
 8
WIRE
 10
  5.0100
 20
  6.3300
 30
0.0
 0
SEQEND
 8
WIRE
 0
POLYLINE
 8
WIRE
 66
1
 10
0.0
 20
0.0
 30
0.0
 0
VERTEX
 8
WIRE
 10
  5.0100
 20
  6.3300
 30
0.0
 0
VERTEX
 8
WIRE
 10
  5.1000
 20
  6.3300
 30
0.0
 0
SEQEND
 8
WIRE
 0
POLYLINE
 8
WIRE
 66
1
 10
0.0
 20
0.0
 30
0.0
 0
VERTEX
 8
WIRE
 10
  4.7000
 20
  6.1800
 30
0.0
 0
VERTEX
 8
WIRE
 10
  4.7000
 20
  4.6800
 30
0.0
 0
SEQEND
 8
WIRE
 0
POLYLINE
 8
WIRE
 66
1
 10
0.0
 20
0.0
 30
0.0
 0
VERTEX
 8
WIRE
 10
  4.9500
 20
  6.1800
 30
0.0
 0
VERTEX
 8
WIRE
 10
  4.7000
 20
  6.1800
 30
0.0
 0
SEQEND
 8
WIRE
 0
POLYLINE
 8
WIRE
 66
1
 10
0.0
 20
0.0
 30
0.0
 0
VERTEX
 8
WIRE
 10
  5.9100
 20
  5.5700
 30
0.0
 0
VERTEX
 8
WIRE
 10
  5.9100
 20
  6.2400
 30
0.0
 0
SEQEND
 8
WIRE
 0
POLYLINE
 8
WIRE
 66
1
 10
0.0
 20
0.0
 30
0.0
 0
VERTEX
 8
WIRE
 10
  5.9200
 20
  6.2400
 30
0.0
 0
VERTEX
 8
WIRE
 10
  6.5400
 20
  6.2400
 30
0.0
 0
SEQEND
 8
WIRE
 0
POLYLINE
 8
WIRE
 66
1
 70
1
 10
0.0
 20
0.0
 30
0.0
 40
  0.0200
 41
  0.0200
 0
VERTEX
 8
WIRE
 10
  6.5300
 20
  6.2400
 30
0.0
 42
1.0
 0
VERTEX
 8
WIRE
 10
  6.5500
 20
  6.2400
 30
0.0
 42
1.0
 0
SEQEND
 8
WIRE
 0
POLYLINE
 8
WIRE
 66
1
 10
0.0
 20
0.0
 30
0.0
 0
VERTEX
 8
WIRE
 10
  6.5500
 20
  6.2400
 30
0.0
 0
VERTEX
 8
WIRE
 10
  6.5400
 20
  6.2400
 30
0.0
 0
SEQEND
 8
WIRE
 0
POLYLINE
 8
WIRE
 66
1
 10
0.0
 20
0.0
 30
0.0
 0
VERTEX
 8
WIRE
 10
  7.1700
 20
  6.2400
 30
0.0
 0
VERTEX
 8
WIRE
 10
  6.9400
 20
  6.2400
 30
0.0
 0
SEQEND
 8
WIRE
 0
POLYLINE
 8
WIRE
 66
1
 10
0.0
 20
0.0
 30
0.0
 0
VERTEX
 8
WIRE
 10
  7.6600
 20
  6.2400
 30
0.0
 0
VERTEX
 8
WIRE
 10
  7.1700
 20
  6.2400
 30
0.0
 0
SEQEND
 8
WIRE
 0
POLYLINE
 8
WIRE
 66
1
 70
1
 10
0.0
 20
0.0
 30
0.0
 40
  0.0200
 41
  0.0200
 0
VERTEX
 8
WIRE
 10
  7.1600
 20
  6.2400
 30
0.0
 42
1.0
 0
VERTEX
 8
WIRE
 10
  7.1800
 20
  6.2400
 30
0.0
 42
1.0
 0
SEQEND
 8
WIRE
 0
POLYLINE
 8
WIRE
 66
1
 10
0.0
 20
0.0
 30
0.0
 0
VERTEX
 8
WIRE
 10
  7.1800
 20
  5.6400
 30
0.0
 0
VERTEX
 8
WIRE
 10
  7.1700
 20
  6.2400
 30
0.0
 0
SEQEND
 8
WIRE
 0
POLYLINE
 8
WIRE
 66
1
 10
0.0
 20
0.0
 30
0.0
 0
VERTEX
 8
WIRE
 10
  7.6600
 20
  5.6800
 30
0.0
 0
VERTEX
 8
WIRE
 10
  7.6600
 20
  6.2400
 30
0.0
 0
SEQEND
 8
WIRE
 0
POLYLINE
 8
WIRE
 66
1
 10
0.0
 20
0.0
 30
0.0
 0
VERTEX
 8
WIRE
 10
  2.5500
 20
  5.9300
 30
0.0
 0
VERTEX
 8
WIRE
 10
  2.5500
 20
  6.0500
 30
0.0
 0
SEQEND
 8
WIRE
 0
POLYLINE
 8
WIRE
 66
1
 10
0.0
 20
0.0
 30
0.0
 0
VERTEX
 8
WIRE
 10
  3.5900
 20
  6.0300
 30
0.0
 0
VERTEX
 8
WIRE
 10
  3.5900
 20
  5.9300
 30
0.0
 0
SEQEND
 8
WIRE
 0
POLYLINE
 8
WIRE
 66
1
 10
0.0
 20
0.0
 30
0.0
 0
VERTEX
 8
WIRE
 10
  4.4800
 20
  5.9300
 30
0.0
 0
VERTEX
 8
WIRE
 10
  4.4800
 20
  6.0300
 30
0.0
 0
SEQEND
 8
WIRE
 0
POLYLINE
 8
WIRE
 66
1
 10
0.0
 20
0.0
 30
0.0
 0
VERTEX
 8
WIRE
 10
  5.4000
 20
  5.9300
 30
0.0
 0
VERTEX
 8
WIRE
 10
  5.4000
 20
  6.0300
 30
0.0
 0
SEQEND
 8
WIRE
 0
POLYLINE
 8
WIRE
 66
1
 10
0.0
 20
0.0
 30
0.0
 0
VERTEX
 8
WIRE
 10
  2.0000
 20
  5.9300
 30
0.0
 0
VERTEX
 8
WIRE
 10
  2.5500
 20
  5.9300
 30
0.0
 0
SEQEND
 8
WIRE
 0
POLYLINE
 8
WIRE
 66
1
 70
1
 10
0.0
 20
0.0
 30
0.0
 40
  0.0200
 41
  0.0200
 0
VERTEX
 8
WIRE
 10
  2.5400
 20
  5.9300
 30
0.0
 42
1.0
 0
VERTEX
 8
WIRE
 10
  2.5600
 20
  5.9300
 30
0.0
 42
1.0
 0
SEQEND
 8
WIRE
 0
POLYLINE
 8
WIRE
 66
1
 10
0.0
 20
0.0
 30
0.0
 0
VERTEX
 8
WIRE
 10
  2.5500
 20
  5.9300
 30
0.0
 0
VERTEX
 8
WIRE
 10
  3.5900
 20
  5.9300
 30
0.0
 0
SEQEND
 8
WIRE
 0
POLYLINE
 8
WIRE
 66
1
 10
0.0
 20
0.0
 30
0.0
 0
VERTEX
 8
WIRE
 10
  3.5900
 20
  5.9300
 30
0.0
 0
VERTEX
 8
WIRE
 10
  4.4800
 20
  5.9300
 30
0.0
 0
SEQEND
 8
WIRE
 0
POLYLINE
 8
WIRE
 66
1
 70
1
 10
0.0
 20
0.0
 30
0.0
 40
  0.0200
 41
  0.0200
 0
VERTEX
 8
WIRE
 10
  3.5800
 20
  5.9300
 30
0.0
 42
1.0
 0
VERTEX
 8
WIRE
 10
  3.6000
 20
  5.9300
 30
0.0
 42
1.0
 0
SEQEND
 8
WIRE
 0
POLYLINE
 8
WIRE
 66
1
 10
0.0
 20
0.0
 30
0.0
 0
VERTEX
 8
WIRE
 10
  5.4000
 20
  5.9300
 30
0.0
 0
VERTEX
 8
WIRE
 10
  4.4800
 20
  5.9300
 30
0.0
 0
SEQEND
 8
WIRE
 0
POLYLINE
 8
WIRE
 66
1
 70
1
 10
0.0
 20
0.0
 30
0.0
 40
  0.0200
 41
  0.0200
 0
VERTEX
 8
WIRE
 10
  4.4700
 20
  5.9300
 30
0.0
 42
1.0
 0
VERTEX
 8
WIRE
 10
  4.4900
 20
  5.9300
 30
0.0
 42
1.0
 0
SEQEND
 8
WIRE
 0
POLYLINE
 8
WIRE
 66
1
 10
0.0
 20
0.0
 30
0.0
 0
VERTEX
 8
WIRE
 10
  2.5200
 20
  4.4100
 30
0.0
 0
VERTEX
 8
WIRE
 10
  2.5200
 20
  5.7700
 30
0.0
 0
SEQEND
 8
WIRE
 0
POLYLINE
 8
WIRE
 66
1
 10
0.0
 20
0.0
 30
0.0
 0
VERTEX
 8
WIRE
 10
  3.0300
 20
  5.7700
 30
0.0
 0
VERTEX
 8
WIRE
 10
  2.5200
 20
  5.7700
 30
0.0
 0
SEQEND
 8
WIRE
 0
POLYLINE
 8
WIRE
 66
1
 10
0.0
 20
0.0
 30
0.0
 0
VERTEX
 8
WIRE
 10
  4.1700
 20
  5.6500
 30
0.0
 0
VERTEX
 8
WIRE
 10
  4.1700
 20
  5.7600
 30
0.0
 0
SEQEND
 8
WIRE
 0
POLYLINE
 8
WIRE
 66
1
 10
0.0
 20
0.0
 30
0.0
 0
VERTEX
 8
WIRE
 10
  4.1800
 20
  5.7600
 30
0.0
 0
VERTEX
 8
WIRE
 10
  4.1700
 20
  5.7600
 30
0.0
 0
SEQEND
 8
WIRE
 0
POLYLINE
 8
WIRE
 66
1
 10
0.0
 20
0.0
 30
0.0
 0
VERTEX
 8
WIRE
 10
  0.5400
 20
  5.6600
 30
0.0
 0
VERTEX
 8
WIRE
 10
  0.8200
 20
  5.6600
 30
0.0
 0
SEQEND
 8
WIRE
 0
POLYLINE
 8
WIRE
 66
1
 10
0.0
 20
0.0
 30
0.0
 0
VERTEX
 8
WIRE
 10
  2.1800
 20
  5.6500
 30
0.0
 0
VERTEX
 8
WIRE
 10
  0.8200
 20
  5.6600
 30
0.0
 0
SEQEND
 8
WIRE
 0
POLYLINE
 8
WIRE
 66
1
 10
0.0
 20
0.0
 30
0.0
 0
VERTEX
 8
WIRE
 10
  2.1800
 20
  5.6500
 30
0.0
 0
VERTEX
 8
WIRE
 10
  3.2900
 20
  5.6500
 30
0.0
 0
SEQEND
 8
WIRE
 0
POLYLINE
 8
WIRE
 66
1
 70
1
 10
0.0
 20
0.0
 30
0.0
 40
  0.0200
 41
  0.0200
 0
VERTEX
 8
WIRE
 10
  3.2800
 20
  5.6500
 30
0.0
 42
1.0
 0
VERTEX
 8
WIRE
 10
  3.3000
 20
  5.6500
 30
0.0
 42
1.0
 0
SEQEND
 8
WIRE
 0
POLYLINE
 8
WIRE
 66
1
 10
0.0
 20
0.0
 30
0.0
 0
VERTEX
 8
WIRE
 10
  3.2900
 20
  5.6500
 30
0.0
 0
VERTEX
 8
WIRE
 10
  4.1700
 20
  5.6500
 30
0.0
 0
SEQEND
 8
WIRE
 0
POLYLINE
 8
WIRE
 66
1
 10
0.0
 20
0.0
 30
0.0
 0
VERTEX
 8
WIRE
 10
  4.0300
 20
  5.7100
 30
0.0
 0
VERTEX
 8
WIRE
 10
  3.5600
 20
  5.7100
 30
0.0
 0
SEQEND
 8
WIRE
 0
POLYLINE
 8
WIRE
 66
1
 10
0.0
 20
0.0
 30
0.0
 0
VERTEX
 8
WIRE
 10
  3.5600
 20
  5.7100
 30
0.0
 0
VERTEX
 8
WIRE
 10
  3.5600
 20
  4.3900
 30
0.0
 0
SEQEND
 8
WIRE
 0
POLYLINE
 8
WIRE
 66
1
 10
0.0
 20
0.0
 30
0.0
 0
VERTEX
 8
WIRE
 10
  5.0100
 20
  5.6500
 30
0.0
 0
VERTEX
 8
WIRE
 10
  4.1700
 20
  5.6500
 30
0.0
 0
SEQEND
 8
WIRE
 0
POLYLINE
 8
WIRE
 66
1
 70
1
 10
0.0
 20
0.0
 30
0.0
 40
  0.0200
 41
  0.0200
 0
VERTEX
 8
WIRE
 10
  4.1600
 20
  5.6500
 30
0.0
 42
1.0
 0
VERTEX
 8
WIRE
 10
  4.1800
 20
  5.6500
 30
0.0
 42
1.0
 0
SEQEND
 8
WIRE
 0
POLYLINE
 8
WIRE
 66
1
 10
0.0
 20
0.0
 30
0.0
 0
VERTEX
 8
WIRE
 10
  5.8400
 20
  5.7300
 30
0.0
 0
VERTEX
 8
WIRE
 10
  5.3700
 20
  5.7300
 30
0.0
 0
SEQEND
 8
WIRE
 0
POLYLINE
 8
WIRE
 66
1
 10
0.0
 20
0.0
 30
0.0
 0
VERTEX
 8
WIRE
 10
  5.3700
 20
  5.7300
 30
0.0
 0
VERTEX
 8
WIRE
 10
  5.3700
 20
  4.3900
 30
0.0
 0
SEQEND
 8
WIRE
 0
POLYLINE
 8
WIRE
 66
1
 10
0.0
 20
0.0
 30
0.0
 0
VERTEX
 8
WIRE
 10
  2.4100
 20
  5.5700
 30
0.0
 0
VERTEX
 8
WIRE
 10
  5.9100
 20
  5.5700
 30
0.0
 0
SEQEND
 8
WIRE
 0
POLYLINE
 8
WIRE
 66
1
 10
0.0
 20
0.0
 30
0.0
 0
VERTEX
 8
WIRE
 10
  2.4100
 20
  4.6200
 30
0.0
 0
VERTEX
 8
WIRE
 10
  2.4100
 20
  5.5700
 30
0.0
 0
SEQEND
 8
WIRE
 0
POLYLINE
 8
WIRE
 66
1
 10
0.0
 20
0.0
 30
0.0
 0
VERTEX
 8
WIRE
 10
  5.9500
 20
  5.4200
 30
0.0
 0
VERTEX
 8
WIRE
 10
  5.9500
 20
  5.6400
 30
0.0
 0
SEQEND
 8
WIRE
 0
POLYLINE
 8
WIRE
 66
1
 10
0.0
 20
0.0
 30
0.0
 0
VERTEX
 8
WIRE
 10
  5.9500
 20
  5.6400
 30
0.0
 0
VERTEX
 8
WIRE
 10
  6.5500
 20
  5.6400
 30
0.0
 0
SEQEND
 8
WIRE
 0
POLYLINE
 8
WIRE
 66
1
 10
0.0
 20
0.0
 30
0.0
 0
VERTEX
 8
WIRE
 10
  7.1800
 20
  5.6400
 30
0.0
 0
VERTEX
 8
WIRE
 10
  6.9500
 20
  5.6400
 30
0.0
 0
SEQEND
 8
WIRE
 0
POLYLINE
 8
WIRE
 66
1
 10
0.0
 20
0.0
 30
0.0
 0
VERTEX
 8
WIRE
 10
  7.1800
 20
  5.1300
 30
0.0
 0
VERTEX
 8
WIRE
 10
  7.1800
 20
  5.6400
 30
0.0
 0
SEQEND
 8
WIRE
 0
POLYLINE
 8
WIRE
 66
1
 10
0.0
 20
0.0
 30
0.0
 0
VERTEX
 8
WIRE
 10
  8.4600
 20
  5.4700
 30
0.0
 0
VERTEX
 8
WIRE
 10
  9.3400
 20
  5.4700
 30
0.0
 0
SEQEND
 8
WIRE
 0
POLYLINE
 8
WIRE
 66
1
 10
0.0
 20
0.0
 30
0.0
 0
VERTEX
 8
WIRE
 10
  8.4600
 20
  4.9000
 30
0.0
 0
VERTEX
 8
WIRE
 10
  8.4600
 20
  5.4700
 30
0.0
 0
SEQEND
 8
WIRE
 0
POLYLINE
 8
WIRE
 66
1
 70
1
 10
0.0
 20
0.0
 30
0.0
 40
  0.0200
 41
  0.0200
 0
VERTEX
 8
WIRE
 10
  8.4500
 20
  5.4700
 30
0.0
 42
1.0
 0
VERTEX
 8
WIRE
 10
  8.4700
 20
  5.4700
 30
0.0
 42
1.0
 0
SEQEND
 8
WIRE
 0
POLYLINE
 8
WIRE
 66
1
 10
0.0
 20
0.0
 30
0.0
 0
VERTEX
 8
WIRE
 10
  8.4600
 20
  5.4700
 30
0.0
 0
VERTEX
 8
WIRE
 10
  8.4600
 20
  5.4800
 30
0.0
 0
SEQEND
 8
WIRE
 0
POLYLINE
 8
WIRE
 66
1
 10
0.0
 20
0.0
 30
0.0
 0
VERTEX
 8
WIRE
 10
  9.3400
 20
  3.9300
 30
0.0
 0
VERTEX
 8
WIRE
 10
  9.3400
 20
  5.4700
 30
0.0
 0
SEQEND
 8
WIRE
 0
POLYLINE
 8
WIRE
 66
1
 70
1
 10
0.0
 20
0.0
 30
0.0
 40
  0.0200
 41
  0.0200
 0
VERTEX
 8
WIRE
 10
  9.3300
 20
  5.4700
 30
0.0
 42
1.0
 0
VERTEX
 8
WIRE
 10
  9.3500
 20
  5.4700
 30
0.0
 42
1.0
 0
SEQEND
 8
WIRE
 0
POLYLINE
 8
WIRE
 66
1
 10
0.0
 20
0.0
 30
0.0
 0
VERTEX
 8
WIRE
 10
  9.3400
 20
  5.4700
 30
0.0
 0
VERTEX
 8
WIRE
 10
  9.3500
 20
  5.4700
 30
0.0
 0
SEQEND
 8
WIRE
 0
POLYLINE
 8
WIRE
 66
1
 10
0.0
 20
0.0
 30
0.0
 0
VERTEX
 8
WIRE
 10
  2.9200
 20
  5.4200
 30
0.0
 0
VERTEX
 8
WIRE
 10
  5.9500
 20
  5.4200
 30
0.0
 0
SEQEND
 8
WIRE
 0
POLYLINE
 8
WIRE
 66
1
 10
0.0
 20
0.0
 30
0.0
 0
VERTEX
 8
WIRE
 10
  2.9200
 20
  4.1100
 30
0.0
 0
VERTEX
 8
WIRE
 10
  2.9200
 20
  5.4200
 30
0.0
 0
SEQEND
 8
WIRE
 0
POLYLINE
 8
WIRE
 66
1
 10
0.0
 20
0.0
 30
0.0
 0
VERTEX
 8
WIRE
 10
  7.3800
 20
  4.9000
 30
0.0
 0
VERTEX
 8
WIRE
 10
  7.3800
 20
  5.2800
 30
0.0
 0
SEQEND
 8
WIRE
 0
POLYLINE
 8
WIRE
 66
1
 10
0.0
 20
0.0
 30
0.0
 0
VERTEX
 8
WIRE
 10
  7.6600
 20
  5.2800
 30
0.0
 0
VERTEX
 8
WIRE
 10
  7.3800
 20
  5.2800
 30
0.0
 0
SEQEND
 8
WIRE
 0
POLYLINE
 8
WIRE
 66
1
 10
0.0
 20
0.0
 30
0.0
 0
VERTEX
 8
WIRE
 10
  3.9900
 20
  5.1300
 30
0.0
 0
VERTEX
 8
WIRE
 10
  6.5500
 20
  5.1300
 30
0.0
 0
SEQEND
 8
WIRE
 0
POLYLINE
 8
WIRE
 66
1
 10
0.0
 20
0.0
 30
0.0
 0
VERTEX
 8
WIRE
 10
  3.9900
 20
  4.0900
 30
0.0
 0
VERTEX
 8
WIRE
 10
  3.9900
 20
  5.1300
 30
0.0
 0
SEQEND
 8
WIRE
 0
POLYLINE
 8
WIRE
 66
1
 10
0.0
 20
0.0
 30
0.0
 0
VERTEX
 8
WIRE
 10
  7.1800
 20
  5.1300
 30
0.0
 0
VERTEX
 8
WIRE
 10
  6.9500
 20
  5.1300
 30
0.0
 0
SEQEND
 8
WIRE
 0
POLYLINE
 8
WIRE
 66
1
 10
0.0
 20
0.0
 30
0.0
 0
VERTEX
 8
WIRE
 10
  7.3800
 20
  4.7200
 30
0.0
 0
VERTEX
 8
WIRE
 10
  7.3800
 20
  4.9000
 30
0.0
 0
SEQEND
 8
WIRE
 0
POLYLINE
 8
WIRE
 66
1
 70
1
 10
0.0
 20
0.0
 30
0.0
 40
  0.0200
 41
  0.0200
 0
VERTEX
 8
WIRE
 10
  7.3700
 20
  4.9000
 30
0.0
 42
1.0
 0
VERTEX
 8
WIRE
 10
  7.3900
 20
  4.9000
 30
0.0
 42
1.0
 0
SEQEND
 8
WIRE
 0
POLYLINE
 8
WIRE
 66
1
 10
0.0
 20
0.0
 30
0.0
 0
VERTEX
 8
WIRE
 10
  7.7000
 20
  4.9000
 30
0.0
 0
VERTEX
 8
WIRE
 10
  7.3800
 20
  4.9000
 30
0.0
 0
SEQEND
 8
WIRE
 0
POLYLINE
 8
WIRE
 66
1
 10
0.0
 20
0.0
 30
0.0
 0
VERTEX
 8
WIRE
 10
  8.1000
 20
  4.9000
 30
0.0
 0
VERTEX
 8
WIRE
 10
  8.0900
 20
  4.9000
 30
0.0
 0
SEQEND
 8
WIRE
 0
POLYLINE
 8
WIRE
 66
1
 10
0.0
 20
0.0
 30
0.0
 0
VERTEX
 8
WIRE
 10
  8.4600
 20
  4.9000
 30
0.0
 0
VERTEX
 8
WIRE
 10
  8.1000
 20
  4.9000
 30
0.0
 0
SEQEND
 8
WIRE
 0
POLYLINE
 8
WIRE
 66
1
 70
1
 10
0.0
 20
0.0
 30
0.0
 40
  0.0200
 41
  0.0200
 0
VERTEX
 8
WIRE
 10
  8.0900
 20
  4.9000
 30
0.0
 42
1.0
 0
VERTEX
 8
WIRE
 10
  8.1100
 20
  4.9000
 30
0.0
 42
1.0
 0
SEQEND
 8
WIRE
 0
POLYLINE
 8
WIRE
 66
1
 10
0.0
 20
0.0
 30
0.0
 0
VERTEX
 8
WIRE
 10
  1.5200
 20
  4.4100
 30
0.0
 0
VERTEX
 8
WIRE
 10
  1.5200
 20
  4.7000
 30
0.0
 0
SEQEND
 8
WIRE
 0
POLYLINE
 8
WIRE
 66
1
 70
1
 10
0.0
 20
0.0
 30
0.0
 40
  0.0200
 41
  0.0200
 0
VERTEX
 8
WIRE
 10
  1.5100
 20
  4.4100
 30
0.0
 42
1.0
 0
VERTEX
 8
WIRE
 10
  1.5300
 20
  4.4100
 30
0.0
 42
1.0
 0
SEQEND
 8
WIRE
 0
POLYLINE
 8
WIRE
 66
1
 10
0.0
 20
0.0
 30
0.0
 0
VERTEX
 8
WIRE
 10
  2.0500
 20
  4.7000
 30
0.0
 0
VERTEX
 8
WIRE
 10
  1.5200
 20
  4.7000
 30
0.0
 0
SEQEND
 8
WIRE
 0
POLYLINE
 8
WIRE
 66
1
 10
0.0
 20
0.0
 30
0.0
 0
VERTEX
 8
WIRE
 10
  2.0600
 20
  6.5500
 30
0.0
 0
VERTEX
 8
WIRE
 10
  2.0500
 20
  4.7000
 30
0.0
 0
SEQEND
 8
WIRE
 0
POLYLINE
 8
WIRE
 66
1
 70
1
 10
0.0
 20
0.0
 30
0.0
 40
  0.0200
 41
  0.0200
 0
VERTEX
 8
WIRE
 10
  2.0500
 20
  6.5500
 30
0.0
 42
1.0
 0
VERTEX
 8
WIRE
 10
  2.0700
 20
  6.5500
 30
0.0
 42
1.0
 0
SEQEND
 8
WIRE
 0
POLYLINE
 8
WIRE
 66
1
 10
0.0
 20
0.0
 30
0.0
 0
VERTEX
 8
WIRE
 10
  4.4500
 20
  4.3900
 30
0.0
 0
VERTEX
 8
WIRE
 10
  4.4500
 20
  4.6800
 30
0.0
 0
SEQEND
 8
WIRE
 0
POLYLINE
 8
WIRE
 66
1
 10
0.0
 20
0.0
 30
0.0
 0
VERTEX
 8
WIRE
 10
  4.7000
 20
  4.6800
 30
0.0
 0
VERTEX
 8
WIRE
 10
  4.4500
 20
  4.6800
 30
0.0
 0
SEQEND
 8
WIRE
 0
POLYLINE
 8
WIRE
 66
1
 10
0.0
 20
0.0
 30
0.0
 0
VERTEX
 8
WIRE
 10
  1.9900
 20
  4.6200
 30
0.0
 0
VERTEX
 8
WIRE
 10
  2.4100
 20
  4.6200
 30
0.0
 0
SEQEND
 8
WIRE
 0
POLYLINE
 8
WIRE
 66
1
 10
0.0
 20
0.0
 30
0.0
 0
VERTEX
 8
WIRE
 10
  1.9900
 20
  4.1100
 30
0.0
 0
VERTEX
 8
WIRE
 10
  1.9900
 20
  4.6200
 30
0.0
 0
SEQEND
 8
WIRE
 0
POLYLINE
 8
WIRE
 66
1
 10
0.0
 20
0.0
 30
0.0
 0
VERTEX
 8
WIRE
 10
  5.9700
 20
  3.5300
 30
0.0
 0
VERTEX
 8
WIRE
 10
  5.9700
 20
  4.6100
 30
0.0
 0
SEQEND
 8
WIRE
 0
POLYLINE
 8
WIRE
 66
1
 10
0.0
 20
0.0
 30
0.0
 0
VERTEX
 8
WIRE
 10
  5.9700
 20
  4.6100
 30
0.0
 0
VERTEX
 8
WIRE
 10
  6.5500
 20
  4.6100
 30
0.0
 0
SEQEND
 8
WIRE
 0
POLYLINE
 8
WIRE
 66
1
 10
0.0
 20
0.0
 30
0.0
 0
VERTEX
 8
WIRE
 10
  7.1700
 20
  4.6100
 30
0.0
 0
VERTEX
 8
WIRE
 10
  6.9500
 20
  4.6100
 30
0.0
 0
SEQEND
 8
WIRE
 0
POLYLINE
 8
WIRE
 66
1
 10
0.0
 20
0.0
 30
0.0
 0
VERTEX
 8
WIRE
 10
  7.1700
 20
  4.6100
 30
0.0
 0
VERTEX
 8
WIRE
 10
  7.1800
 20
  5.1300
 30
0.0
 0
SEQEND
 8
WIRE
 0
POLYLINE
 8
WIRE
 66
1
 10
0.0
 20
0.0
 30
0.0
 0
VERTEX
 8
WIRE
 10
  1.1200
 20
  4.4700
 30
0.0
 0
VERTEX
 8
WIRE
 10
  1.1200
 20
  4.2600
 30
0.0
 0
SEQEND
 8
WIRE
 0
POLYLINE
 8
WIRE
 66
1
 70
1
 10
0.0
 20
0.0
 30
0.0
 40
  0.0200
 41
  0.0200
 0
VERTEX
 8
WIRE
 10
  1.1100
 20
  4.2600
 30
0.0
 42
1.0
 0
VERTEX
 8
WIRE
 10
  1.1300
 20
  4.2600
 30
0.0
 42
1.0
 0
SEQEND
 8
WIRE
 0
POLYLINE
 8
WIRE
 66
1
 10
0.0
 20
0.0
 30
0.0
 0
VERTEX
 8
WIRE
 10
  1.1200
 20
  4.4700
 30
0.0
 0
VERTEX
 8
WIRE
 10
  2.1100
 20
  4.4700
 30
0.0
 0
SEQEND
 8
WIRE
 0
POLYLINE
 8
WIRE
 66
1
 10
0.0
 20
0.0
 30
0.0
 0
VERTEX
 8
WIRE
 10
  2.1100
 20
  4.1100
 30
0.0
 0
VERTEX
 8
WIRE
 10
  2.1100
 20
  4.4700
 30
0.0
 0
SEQEND
 8
WIRE
 0
POLYLINE
 8
WIRE
 66
1
 10
0.0
 20
0.0
 30
0.0
 0
VERTEX
 8
WIRE
 10
  2.1100
 20
  4.4700
 30
0.0
 0
VERTEX
 8
WIRE
 10
  3.1600
 20
  4.4700
 30
0.0
 0
SEQEND
 8
WIRE
 0
POLYLINE
 8
WIRE
 66
1
 70
1
 10
0.0
 20
0.0
 30
0.0
 40
  0.0200
 41
  0.0200
 0
VERTEX
 8
WIRE
 10
  2.1000
 20
  4.4700
 30
0.0
 42
1.0
 0
VERTEX
 8
WIRE
 10
  2.1200
 20
  4.4700
 30
0.0
 42
1.0
 0
SEQEND
 8
WIRE
 0
POLYLINE
 8
WIRE
 66
1
 70
1
 10
0.0
 20
0.0
 30
0.0
 40
  0.0200
 41
  0.0200
 0
VERTEX
 8
WIRE
 10
  3.1500
 20
  4.4700
 30
0.0
 42
1.0
 0
VERTEX
 8
WIRE
 10
  3.1700
 20
  4.4700
 30
0.0
 42
1.0
 0
SEQEND
 8
WIRE
 0
POLYLINE
 8
WIRE
 66
1
 10
0.0
 20
0.0
 30
0.0
 0
VERTEX
 8
WIRE
 10
  3.1600
 20
  4.0900
 30
0.0
 0
VERTEX
 8
WIRE
 10
  3.1600
 20
  4.4700
 30
0.0
 0
SEQEND
 8
WIRE
 0
POLYLINE
 8
WIRE
 66
1
 10
0.0
 20
0.0
 30
0.0
 0
VERTEX
 8
WIRE
 10
  3.1600
 20
  4.4700
 30
0.0
 0
VERTEX
 8
WIRE
 10
  4.1500
 20
  4.4700
 30
0.0
 0
SEQEND
 8
WIRE
 0
POLYLINE
 8
WIRE
 66
1
 10
0.0
 20
0.0
 30
0.0
 0
VERTEX
 8
WIRE
 10
  4.1500
 20
  4.4700
 30
0.0
 0
VERTEX
 8
WIRE
 10
  4.1500
 20
  4.0900
 30
0.0
 0
SEQEND
 8
WIRE
 0
POLYLINE
 8
WIRE
 66
1
 10
0.0
 20
0.0
 30
0.0
 0
VERTEX
 8
WIRE
 10
  1.5200
 20
  4.4100
 30
0.0
 0
VERTEX
 8
WIRE
 10
  1.5200
 20
  4.4000
 30
0.0
 0
SEQEND
 8
WIRE
 0
POLYLINE
 8
WIRE
 66
1
 10
0.0
 20
0.0
 30
0.0
 0
VERTEX
 8
WIRE
 10
  0.3200
 20
  0.3400
 30
0.0
 0
VERTEX
 8
WIRE
 10
  0.3200
 20
  4.2600
 30
0.0
 0
SEQEND
 8
WIRE
 0
POLYLINE
 8
WIRE
 66
1
 10
0.0
 20
0.0
 30
0.0
 0
VERTEX
 8
WIRE
 10
  0.3200
 20
  4.2600
 30
0.0
 0
VERTEX
 8
WIRE
 10
  1.1200
 20
  4.2600
 30
0.0
 0
SEQEND
 8
WIRE
 0
POLYLINE
 8
WIRE
 66
1
 10
0.0
 20
0.0
 30
0.0
 0
VERTEX
 8
WIRE
 10
  1.1200
 20
  4.2600
 30
0.0
 0
VERTEX
 8
WIRE
 10
  1.1200
 20
  4.1100
 30
0.0
 0
SEQEND
 8
WIRE
 0
POLYLINE
 8
WIRE
 66
1
 10
0.0
 20
0.0
 30
0.0
 0
VERTEX
 8
WIRE
 10
  1.1200
 20
  4.1100
 30
0.0
 0
VERTEX
 8
WIRE
 10
  1.2200
 20
  4.1100
 30
0.0
 0
SEQEND
 8
WIRE
 0
POLYLINE
 8
WIRE
 66
1
 10
0.0
 20
0.0
 30
0.0
 0
VERTEX
 8
WIRE
 10
  1.8200
 20
  4.1100
 30
0.0
 0
VERTEX
 8
WIRE
 10
  1.9900
 20
  4.1100
 30
0.0
 0
SEQEND
 8
WIRE
 0
POLYLINE
 8
WIRE
 66
1
 10
0.0
 20
0.0
 30
0.0
 0
VERTEX
 8
WIRE
 10
  1.9900
 20
  4.1100
 30
0.0
 0
VERTEX
 8
WIRE
 10
  1.9900
 20
  3.3400
 30
0.0
 0
SEQEND
 8
WIRE
 0
POLYLINE
 8
WIRE
 66
1
 70
1
 10
0.0
 20
0.0
 30
0.0
 40
  0.0200
 41
  0.0200
 0
VERTEX
 8
WIRE
 10
  1.9800
 20
  4.1100
 30
0.0
 42
1.0
 0
VERTEX
 8
WIRE
 10
  2.0000
 20
  4.1100
 30
0.0
 42
1.0
 0
SEQEND
 8
WIRE
 0
POLYLINE
 8
WIRE
 66
1
 10
0.0
 20
0.0
 30
0.0
 0
VERTEX
 8
WIRE
 10
  2.2200
 20
  4.1100
 30
0.0
 0
VERTEX
 8
WIRE
 10
  2.1100
 20
  4.1100
 30
0.0
 0
SEQEND
 8
WIRE
 0
POLYLINE
 8
WIRE
 66
1
 10
0.0
 20
0.0
 30
0.0
 0
VERTEX
 8
WIRE
 10
  2.8100
 20
  4.1100
 30
0.0
 0
VERTEX
 8
WIRE
 10
  2.8200
 20
  4.1100
 30
0.0
 0
SEQEND
 8
WIRE
 0
POLYLINE
 8
WIRE
 66
1
 70
1
 10
0.0
 20
0.0
 30
0.0
 40
  0.0200
 41
  0.0200
 0
VERTEX
 8
WIRE
 10
  2.8100
 20
  4.1100
 30
0.0
 42
1.0
 0
VERTEX
 8
WIRE
 10
  2.8300
 20
  4.1100
 30
0.0
 42
1.0
 0
SEQEND
 8
WIRE
 0
POLYLINE
 8
WIRE
 66
1
 10
0.0
 20
0.0
 30
0.0
 0
VERTEX
 8
WIRE
 10
  2.8200
 20
  4.1100
 30
0.0
 0
VERTEX
 8
WIRE
 10
  2.9200
 20
  4.1100
 30
0.0
 0
SEQEND
 8
WIRE
 0
POLYLINE
 8
WIRE
 66
1
 10
0.0
 20
0.0
 30
0.0
 0
VERTEX
 8
WIRE
 10
  2.9200
 20
  3.4100
 30
0.0
 0
VERTEX
 8
WIRE
 10
  2.9200
 20
  4.1100
 30
0.0
 0
SEQEND
 8
WIRE
 0
POLYLINE
 8
WIRE
 66
1
 70
1
 10
0.0
 20
0.0
 30
0.0
 40
  0.0200
 41
  0.0200
 0
VERTEX
 8
WIRE
 10
  2.9100
 20
  4.1100
 30
0.0
 42
1.0
 0
VERTEX
 8
WIRE
 10
  2.9300
 20
  4.1100
 30
0.0
 42
1.0
 0
SEQEND
 8
WIRE
 0
POLYLINE
 8
WIRE
 66
1
 10
0.0
 20
0.0
 30
0.0
 0
VERTEX
 8
WIRE
 10
  3.2600
 20
  4.0900
 30
0.0
 0
VERTEX
 8
WIRE
 10
  3.1600
 20
  4.0900
 30
0.0
 0
SEQEND
 8
WIRE
 0
POLYLINE
 8
WIRE
 66
1
 10
0.0
 20
0.0
 30
0.0
 0
VERTEX
 8
WIRE
 10
  3.8600
 20
  4.0900
 30
0.0
 0
VERTEX
 8
WIRE
 10
  3.9900
 20
  4.0900
 30
0.0
 0
SEQEND
 8
WIRE
 0
POLYLINE
 8
WIRE
 66
1
 10
0.0
 20
0.0
 30
0.0
 0
VERTEX
 8
WIRE
 10
  3.9900
 20
  3.3100
 30
0.0
 0
VERTEX
 8
WIRE
 10
  3.9900
 20
  4.0900
 30
0.0
 0
SEQEND
 8
WIRE
 0
POLYLINE
 8
WIRE
 66
1
 70
1
 10
0.0
 20
0.0
 30
0.0
 40
  0.0200
 41
  0.0200
 0
VERTEX
 8
WIRE
 10
  3.9800
 20
  4.0900
 30
0.0
 42
1.0
 0
VERTEX
 8
WIRE
 10
  4.0000
 20
  4.0900
 30
0.0
 42
1.0
 0
SEQEND
 8
WIRE
 0
POLYLINE
 8
WIRE
 66
1
 10
0.0
 20
0.0
 30
0.0
 0
VERTEX
 8
WIRE
 10
  4.7400
 20
  4.0900
 30
0.0
 0
VERTEX
 8
WIRE
 10
  4.7500
 20
  4.0900
 30
0.0
 0
SEQEND
 8
WIRE
 0
POLYLINE
 8
WIRE
 66
1
 10
0.0
 20
0.0
 30
0.0
 0
VERTEX
 8
WIRE
 10
  4.7500
 20
  4.0900
 30
0.0
 0
VERTEX
 8
WIRE
 10
  4.9000
 20
  4.0900
 30
0.0
 0
SEQEND
 8
WIRE
 0
POLYLINE
 8
WIRE
 66
1
 70
1
 10
0.0
 20
0.0
 30
0.0
 40
  0.0200
 41
  0.0200
 0
VERTEX
 8
WIRE
 10
  4.7400
 20
  4.0900
 30
0.0
 42
1.0
 0
VERTEX
 8
WIRE
 10
  4.7600
 20
  4.0900
 30
0.0
 42
1.0
 0
SEQEND
 8
WIRE
 0
POLYLINE
 8
WIRE
 66
1
 10
0.0
 20
0.0
 30
0.0
 0
VERTEX
 8
WIRE
 10
  4.9100
 20
  3.3900
 30
0.0
 0
VERTEX
 8
WIRE
 10
  4.9000
 20
  4.0900
 30
0.0
 0
SEQEND
 8
WIRE
 0
POLYLINE
 8
WIRE
 66
1
 10
0.0
 20
0.0
 30
0.0
 0
VERTEX
 8
WIRE
 10
  4.9000
 20
  4.0900
 30
0.0
 0
VERTEX
 8
WIRE
 10
  4.9000
 20
  3.9800
 30
0.0
 0
SEQEND
 8
WIRE
 0
POLYLINE
 8
WIRE
 66
1
 10
0.0
 20
0.0
 30
0.0
 0
VERTEX
 8
WIRE
 10
  5.0700
 20
  4.0900
 30
0.0
 0
VERTEX
 8
WIRE
 10
  5.0700
 20
  3.8900
 30
0.0
 0
SEQEND
 8
WIRE
 0
POLYLINE
 8
WIRE
 66
1
 10
0.0
 20
0.0
 30
0.0
 0
VERTEX
 8
WIRE
 10
  5.6700
 20
  4.0900
 30
0.0
 0
VERTEX
 8
WIRE
 10
  5.9400
 20
  4.0900
 30
0.0
 0
SEQEND
 8
WIRE
 0
POLYLINE
 8
WIRE
 66
1
 10
0.0
 20
0.0
 30
0.0
 0
VERTEX
 8
WIRE
 10
  4.9000
 20
  3.9800
 30
0.0
 0
VERTEX
 8
WIRE
 10
  5.0200
 20
  3.9800
 30
0.0
 0
SEQEND
 8
WIRE
 0
POLYLINE
 8
WIRE
 66
1
 10
0.0
 20
0.0
 30
0.0
 0
VERTEX
 8
WIRE
 10
  5.0200
 20
  3.9800
 30
0.0
 0
VERTEX
 8
WIRE
 10
  5.0200
 20
  3.5300
 30
0.0
 0
SEQEND
 8
WIRE
 0
POLYLINE
 8
WIRE
 66
1
 10
0.0
 20
0.0
 30
0.0
 0
VERTEX
 8
WIRE
 10
  1.2200
 20
  3.9100
 30
0.0
 0
VERTEX
 8
WIRE
 10
  1.0700
 20
  3.9100
 30
0.0
 0
SEQEND
 8
WIRE
 0
POLYLINE
 8
WIRE
 66
1
 10
0.0
 20
0.0
 30
0.0
 0
VERTEX
 8
WIRE
 10
  1.0700
 20
  3.9100
 30
0.0
 0
VERTEX
 8
WIRE
 10
  1.0700
 20
  3.4200
 30
0.0
 0
SEQEND
 8
WIRE
 0
POLYLINE
 8
WIRE
 66
1
 10
0.0
 20
0.0
 30
0.0
 0
VERTEX
 8
WIRE
 10
  2.1200
 20
  3.9100
 30
0.0
 0
VERTEX
 8
WIRE
 10
  2.2200
 20
  3.9100
 30
0.0
 0
SEQEND
 8
WIRE
 0
POLYLINE
 8
WIRE
 66
1
 10
0.0
 20
0.0
 30
0.0
 0
VERTEX
 8
WIRE
 10
  2.1200
 20
  3.4200
 30
0.0
 0
VERTEX
 8
WIRE
 10
  2.1200
 20
  3.9100
 30
0.0
 0
SEQEND
 8
WIRE
 0
POLYLINE
 8
WIRE
 66
1
 70
1
 10
0.0
 20
0.0
 30
0.0
 40
  0.0200
 41
  0.0200
 0
VERTEX
 8
WIRE
 10
  2.1100
 20
  3.4200
 30
0.0
 42
1.0
 0
VERTEX
 8
WIRE
 10
  2.1300
 20
  3.4200
 30
0.0
 42
1.0
 0
SEQEND
 8
WIRE
 0
POLYLINE
 8
WIRE
 66
1
 10
0.0
 20
0.0
 30
0.0
 0
VERTEX
 8
WIRE
 10
  2.2200
 20
  3.9100
 30
0.0
 0
VERTEX
 8
WIRE
 10
  2.2300
 20
  3.9100
 30
0.0
 0
SEQEND
 8
WIRE
 0
POLYLINE
 8
WIRE
 66
1
 70
1
 10
0.0
 20
0.0
 30
0.0
 40
  0.0200
 41
  0.0200
 0
VERTEX
 8
WIRE
 10
  2.2100
 20
  3.9100
 30
0.0
 42
1.0
 0
VERTEX
 8
WIRE
 10
  2.2300
 20
  3.9100
 30
0.0
 42
1.0
 0
SEQEND
 8
WIRE
 0
POLYLINE
 8
WIRE
 66
1
 10
0.0
 20
0.0
 30
0.0
 0
VERTEX
 8
WIRE
 10
  3.1300
 20
  3.8900
 30
0.0
 0
VERTEX
 8
WIRE
 10
  3.1300
 20
  3.4000
 30
0.0
 0
SEQEND
 8
WIRE
 0
POLYLINE
 8
WIRE
 66
1
 10
0.0
 20
0.0
 30
0.0
 0
VERTEX
 8
WIRE
 10
  3.1300
 20
  3.8900
 30
0.0
 0
VERTEX
 8
WIRE
 10
  3.2600
 20
  3.8900
 30
0.0
 0
SEQEND
 8
WIRE
 0
POLYLINE
 8
WIRE
 66
1
 10
0.0
 20
0.0
 30
0.0
 0
VERTEX
 8
WIRE
 10
  3.2600
 20
  3.8900
 30
0.0
 0
VERTEX
 8
WIRE
 10
  3.2700
 20
  3.8900
 30
0.0
 0
SEQEND
 8
WIRE
 0
POLYLINE
 8
WIRE
 66
1
 70
1
 10
0.0
 20
0.0
 30
0.0
 40
  0.0200
 41
  0.0200
 0
VERTEX
 8
WIRE
 10
  3.2500
 20
  3.8900
 30
0.0
 42
1.0
 0
VERTEX
 8
WIRE
 10
  3.2700
 20
  3.8900
 30
0.0
 42
1.0
 0
SEQEND
 8
WIRE
 0
POLYLINE
 8
WIRE
 66
1
 10
0.0
 20
0.0
 30
0.0
 0
VERTEX
 8
WIRE
 10
  4.1500
 20
  3.3600
 30
0.0
 0
VERTEX
 8
WIRE
 10
  4.1500
 20
  3.8900
 30
0.0
 0
SEQEND
 8
WIRE
 0
POLYLINE
 8
WIRE
 66
1
 10
0.0
 20
0.0
 30
0.0
 0
VERTEX
 8
WIRE
 10
  5.0700
 20
  3.8900
 30
0.0
 0
VERTEX
 8
WIRE
 10
  5.0700
 20
  3.4900
 30
0.0
 0
SEQEND
 8
WIRE
 0
POLYLINE
 8
WIRE
 66
1
 70
1
 10
0.0
 20
0.0
 30
0.0
 40
  0.0200
 41
  0.0200
 0
VERTEX
 8
WIRE
 10
  5.0600
 20
  3.8900
 30
0.0
 42
1.0
 0
VERTEX
 8
WIRE
 10
  5.0800
 20
  3.8900
 30
0.0
 42
1.0
 0
SEQEND
 8
WIRE
 0
POLYLINE
 8
WIRE
 66
1
 10
0.0
 20
0.0
 30
0.0
 0
VERTEX
 8
WIRE
 10
  6.7500
 20
  3.9300
 30
0.0
 0
VERTEX
 8
WIRE
 10
  9.3400
 20
  3.9300
 30
0.0
 0
SEQEND
 8
WIRE
 0
POLYLINE
 8
WIRE
 66
1
 10
0.0
 20
0.0
 30
0.0
 0
VERTEX
 8
WIRE
 10
  6.7500
 20
  2.9700
 30
0.0
 0
VERTEX
 8
WIRE
 10
  6.7500
 20
  3.9300
 30
0.0
 0
SEQEND
 8
WIRE
 0
POLYLINE
 8
WIRE
 66
1
 10
0.0
 20
0.0
 30
0.0
 0
VERTEX
 8
WIRE
 10
  7.0700
 20
  2.8800
 30
0.0
 0
VERTEX
 8
WIRE
 10
  7.0700
 20
  3.5800
 30
0.0
 0
SEQEND
 8
WIRE
 0
POLYLINE
 8
WIRE
 66
1
 10
0.0
 20
0.0
 30
0.0
 0
VERTEX
 8
WIRE
 10
  7.0700
 20
  3.5800
 30
0.0
 0
VERTEX
 8
WIRE
 10
  9.1700
 20
  3.5800
 30
0.0
 0
SEQEND
 8
WIRE
 0
POLYLINE
 8
WIRE
 66
1
 10
0.0
 20
0.0
 30
0.0
 0
VERTEX
 8
WIRE
 10
  9.1700
 20
  3.5800
 30
0.0
 0
VERTEX
 8
WIRE
 10
  9.1700
 20
  3.3800
 30
0.0
 0
SEQEND
 8
WIRE
 0
POLYLINE
 8
WIRE
 66
1
 10
0.0
 20
0.0
 30
0.0
 0
VERTEX
 8
WIRE
 10
  5.0200
 20
  3.5300
 30
0.0
 0
VERTEX
 8
WIRE
 10
  5.9700
 20
  3.5300
 30
0.0
 0
SEQEND
 8
WIRE
 0
POLYLINE
 8
WIRE
 66
1
 10
0.0
 20
0.0
 30
0.0
 0
VERTEX
 8
WIRE
 10
  1.0700
 20
  3.4200
 30
0.0
 0
VERTEX
 8
WIRE
 10
  2.1200
 20
  3.4200
 30
0.0
 0
SEQEND
 8
WIRE
 0
POLYLINE
 8
WIRE
 66
1
 10
0.0
 20
0.0
 30
0.0
 0
VERTEX
 8
WIRE
 10
  2.1200
 20
  3.4200
 30
0.0
 0
VERTEX
 8
WIRE
 10
  2.6800
 20
  3.4200
 30
0.0
 0
SEQEND
 8
WIRE
 0
POLYLINE
 8
WIRE
 66
1
 10
0.0
 20
0.0
 30
0.0
 0
VERTEX
 8
WIRE
 10
  2.6800
 20
  3.4200
 30
0.0
 0
VERTEX
 8
WIRE
 10
  2.6800
 20
  2.5900
 30
0.0
 0
SEQEND
 8
WIRE
 0
POLYLINE
 8
WIRE
 66
1
 70
1
 10
0.0
 20
0.0
 30
0.0
 40
  0.0200
 41
  0.0200
 0
VERTEX
 8
WIRE
 10
  2.6700
 20
  2.5900
 30
0.0
 42
1.0
 0
VERTEX
 8
WIRE
 10
  2.6900
 20
  2.5900
 30
0.0
 42
1.0
 0
SEQEND
 8
WIRE
 0
POLYLINE
 8
WIRE
 66
1
 10
0.0
 20
0.0
 30
0.0
 0
VERTEX
 8
WIRE
 10
  2.9200
 20
  3.4100
 30
0.0
 0
VERTEX
 8
WIRE
 10
  2.6800
 20
  3.4200
 30
0.0
 0
SEQEND
 8
WIRE
 0
POLYLINE
 8
WIRE
 66
1
 10
0.0
 20
0.0
 30
0.0
 0
VERTEX
 8
WIRE
 10
  2.9200
 20
  3.4100
 30
0.0
 0
VERTEX
 8
WIRE
 10
  3.0600
 20
  3.4100
 30
0.0
 0
SEQEND
 8
WIRE
 0
POLYLINE
 8
WIRE
 66
1
 10
0.0
 20
0.0
 30
0.0
 0
VERTEX
 8
WIRE
 10
  3.0600
 20
  3.4100
 30
0.0
 0
VERTEX
 8
WIRE
 10
  3.0600
 20
  3.3100
 30
0.0
 0
SEQEND
 8
WIRE
 0
POLYLINE
 8
WIRE
 66
1
 10
0.0
 20
0.0
 30
0.0
 0
VERTEX
 8
WIRE
 10
  3.1300
 20
  3.4000
 30
0.0
 0
VERTEX
 8
WIRE
 10
  4.7500
 20
  3.4000
 30
0.0
 0
SEQEND
 8
WIRE
 0
POLYLINE
 8
WIRE
 66
1
 10
0.0
 20
0.0
 30
0.0
 0
VERTEX
 8
WIRE
 10
  5.9300
 20
  3.3500
 30
0.0
 0
VERTEX
 8
WIRE
 10
  4.1500
 20
  3.3600
 30
0.0
 0
SEQEND
 8
WIRE
 0
POLYLINE
 8
WIRE
 66
1
 10
0.0
 20
0.0
 30
0.0
 0
VERTEX
 8
WIRE
 10
  4.7500
 20
  3.4000
 30
0.0
 0
VERTEX
 8
WIRE
 10
  4.7500
 20
  3.3900
 30
0.0
 0
SEQEND
 8
WIRE
 0
POLYLINE
 8
WIRE
 66
1
 10
0.0
 20
0.0
 30
0.0
 0
VERTEX
 8
WIRE
 10
  4.7500
 20
  3.3900
 30
0.0
 0
VERTEX
 8
WIRE
 10
  4.7900
 20
  3.3900
 30
0.0
 0
SEQEND
 8
WIRE
 0
POLYLINE
 8
WIRE
 66
1
 10
0.0
 20
0.0
 30
0.0
 0
VERTEX
 8
WIRE
 10
  4.9100
 20
  3.3900
 30
0.0
 0
VERTEX
 8
WIRE
 10
  4.7900
 20
  3.3900
 30
0.0
 0
SEQEND
 8
WIRE
 0
POLYLINE
 8
WIRE
 66
1
 70
1
 10
0.0
 20
0.0
 30
0.0
 40
  0.0200
 41
  0.0200
 0
VERTEX
 8
WIRE
 10
  4.7800
 20
  3.3900
 30
0.0
 42
1.0
 0
VERTEX
 8
WIRE
 10
  4.8000
 20
  3.3900
 30
0.0
 42
1.0
 0
SEQEND
 8
WIRE
 0
POLYLINE
 8
WIRE
 66
1
 10
0.0
 20
0.0
 30
0.0
 0
VERTEX
 8
WIRE
 10
  4.7900
 20
  3.3900
 30
0.0
 0
VERTEX
 8
WIRE
 10
  4.7900
 20
  2.6000
 30
0.0
 0
SEQEND
 8
WIRE
 0
POLYLINE
 8
WIRE
 66
1
 70
1
 10
0.0
 20
0.0
 30
0.0
 40
  0.0200
 41
  0.0200
 0
VERTEX
 8
WIRE
 10
  4.7800
 20
  2.6000
 30
0.0
 42
1.0
 0
VERTEX
 8
WIRE
 10
  4.8000
 20
  2.6000
 30
0.0
 42
1.0
 0
SEQEND
 8
WIRE
 0
POLYLINE
 8
WIRE
 66
1
 10
0.0
 20
0.0
 30
0.0
 0
VERTEX
 8
WIRE
 10
  5.9300
 20
  3.3500
 30
0.0
 0
VERTEX
 8
WIRE
 10
  5.9400
 20
  4.0900
 30
0.0
 0
SEQEND
 8
WIRE
 0
POLYLINE
 8
WIRE
 66
1
 10
0.0
 20
0.0
 30
0.0
 0
VERTEX
 8
WIRE
 10
  1.5800
 20
  3.3400
 30
0.0
 0
VERTEX
 8
WIRE
 10
  1.5800
 20
  2.5900
 30
0.0
 0
SEQEND
 8
WIRE
 0
POLYLINE
 8
WIRE
 66
1
 70
1
 10
0.0
 20
0.0
 30
0.0
 40
  0.0200
 41
  0.0200
 0
VERTEX
 8
WIRE
 10
  1.5700
 20
  2.5900
 30
0.0
 42
1.0
 0
VERTEX
 8
WIRE
 10
  1.5900
 20
  2.5900
 30
0.0
 42
1.0
 0
SEQEND
 8
WIRE
 0
POLYLINE
 8
WIRE
 66
1
 10
0.0
 20
0.0
 30
0.0
 0
VERTEX
 8
WIRE
 10
  1.9900
 20
  3.3400
 30
0.0
 0
VERTEX
 8
WIRE
 10
  1.5800
 20
  3.3400
 30
0.0
 0
SEQEND
 8
WIRE
 0
POLYLINE
 8
WIRE
 66
1
 10
0.0
 20
0.0
 30
0.0
 0
VERTEX
 8
WIRE
 10
  3.0600
 20
  3.3100
 30
0.0
 0
VERTEX
 8
WIRE
 10
  3.6600
 20
  3.3100
 30
0.0
 0
SEQEND
 8
WIRE
 0
POLYLINE
 8
WIRE
 66
1
 10
0.0
 20
0.0
 30
0.0
 0
VERTEX
 8
WIRE
 10
  3.9900
 20
  3.3100
 30
0.0
 0
VERTEX
 8
WIRE
 10
  3.6600
 20
  3.3100
 30
0.0
 0
SEQEND
 8
WIRE
 0
POLYLINE
 8
WIRE
 66
1
 10
0.0
 20
0.0
 30
0.0
 0
VERTEX
 8
WIRE
 10
  3.6600
 20
  3.3100
 30
0.0
 0
VERTEX
 8
WIRE
 10
  3.6600
 20
  2.5900
 30
0.0
 0
SEQEND
 8
WIRE
 0
POLYLINE
 8
WIRE
 66
1
 70
1
 10
0.0
 20
0.0
 30
0.0
 40
  0.0200
 41
  0.0200
 0
VERTEX
 8
WIRE
 10
  3.6500
 20
  3.3100
 30
0.0
 42
1.0
 0
VERTEX
 8
WIRE
 10
  3.6700
 20
  3.3100
 30
0.0
 42
1.0
 0
SEQEND
 8
WIRE
 0
POLYLINE
 8
WIRE
 66
1
 70
1
 10
0.0
 20
0.0
 30
0.0
 40
  0.0200
 41
  0.0200
 0
VERTEX
 8
WIRE
 10
  3.6500
 20
  2.5900
 30
0.0
 42
1.0
 0
VERTEX
 8
WIRE
 10
  3.6700
 20
  2.5900
 30
0.0
 42
1.0
 0
SEQEND
 8
WIRE
 0
POLYLINE
 8
WIRE
 66
1
 10
0.0
 20
0.0
 30
0.0
 0
VERTEX
 8
WIRE
 10
  5.3100
 20
  2.9800
 30
0.0
 0
VERTEX
 8
WIRE
 10
  5.3100
 20
  2.3800
 30
0.0
 0
SEQEND
 8
WIRE
 0
POLYLINE
 8
WIRE
 66
1
 10
0.0
 20
0.0
 30
0.0
 0
VERTEX
 8
WIRE
 10
  5.3300
 20
  2.9700
 30
0.0
 0
VERTEX
 8
WIRE
 10
  6.7500
 20
  2.9700
 30
0.0
 0
SEQEND
 8
WIRE
 0
POLYLINE
 8
WIRE
 66
1
 10
0.0
 20
0.0
 30
0.0
 0
VERTEX
 8
WIRE
 10
  9.1700
 20
  0.7800
 30
0.0
 0
VERTEX
 8
WIRE
 10
  9.1700
 20
  2.9800
 30
0.0
 0
SEQEND
 8
WIRE
 0
POLYLINE
 8
WIRE
 66
1
 10
0.0
 20
0.0
 30
0.0
 0
VERTEX
 8
WIRE
 10
  5.7700
 20
  1.9800
 30
0.0
 0
VERTEX
 8
WIRE
 10
  5.7700
 20
  2.7800
 30
0.0
 0
SEQEND
 8
WIRE
 0
POLYLINE
 8
WIRE
 66
1
 10
0.0
 20
0.0
 30
0.0
 0
VERTEX
 8
WIRE
 10
  5.7700
 20
  2.7800
 30
0.0
 0
VERTEX
 8
WIRE
 10
  6.6700
 20
  2.7800
 30
0.0
 0
SEQEND
 8
WIRE
 0
POLYLINE
 8
WIRE
 66
1
 10
0.0
 20
0.0
 30
0.0
 0
VERTEX
 8
WIRE
 10
  1.5800
 20
  2.5900
 30
0.0
 0
VERTEX
 8
WIRE
 10
  1.5800
 20
  2.4600
 30
0.0
 0
SEQEND
 8
WIRE
 0
POLYLINE
 8
WIRE
 66
1
 10
0.0
 20
0.0
 30
0.0
 0
VERTEX
 8
WIRE
 10
  2.6800
 20
  2.5900
 30
0.0
 0
VERTEX
 8
WIRE
 10
  2.6800
 20
  2.4600
 30
0.0
 0
SEQEND
 8
WIRE
 0
POLYLINE
 8
WIRE
 66
1
 10
0.0
 20
0.0
 30
0.0
 0
VERTEX
 8
WIRE
 10
  3.6600
 20
  2.5900
 30
0.0
 0
VERTEX
 8
WIRE
 10
  3.6600
 20
  2.4600
 30
0.0
 0
SEQEND
 8
WIRE
 0
POLYLINE
 8
WIRE
 66
1
 10
0.0
 20
0.0
 30
0.0
 0
VERTEX
 8
WIRE
 10
  4.7900
 20
  2.6000
 30
0.0
 0
VERTEX
 8
WIRE
 10
  4.7900
 20
  2.4700
 30
0.0
 0
SEQEND
 8
WIRE
 0
POLYLINE
 8
WIRE
 66
1
 10
0.0
 20
0.0
 30
0.0
 0
VERTEX
 8
WIRE
 10
  8.2700
 20
  2.5800
 30
0.0
 0
VERTEX
 8
WIRE
 10
  7.4700
 20
  2.5800
 30
0.0
 0
SEQEND
 8
WIRE
 0
POLYLINE
 8
WIRE
 66
1
 10
0.0
 20
0.0
 30
0.0
 0
VERTEX
 8
WIRE
 10
  8.2700
 20
  2.2800
 30
0.0
 0
VERTEX
 8
WIRE
 10
  8.2700
 20
  2.5800
 30
0.0
 0
SEQEND
 8
WIRE
 0
POLYLINE
 8
WIRE
 66
1
 10
0.0
 20
0.0
 30
0.0
 0
VERTEX
 8
WIRE
 10
  1.5800
 20
  2.4600
 30
0.0
 0
VERTEX
 8
WIRE
 10
  2.6800
 20
  2.4600
 30
0.0
 0
SEQEND
 8
WIRE
 0
POLYLINE
 8
WIRE
 66
1
 70
1
 10
0.0
 20
0.0
 30
0.0
 40
  0.0200
 41
  0.0200
 0
VERTEX
 8
WIRE
 10
  2.6700
 20
  2.4600
 30
0.0
 42
1.0
 0
VERTEX
 8
WIRE
 10
  2.6900
 20
  2.4600
 30
0.0
 42
1.0
 0
SEQEND
 8
WIRE
 0
POLYLINE
 8
WIRE
 66
1
 10
0.0
 20
0.0
 30
0.0
 0
VERTEX
 8
WIRE
 10
  2.6800
 20
  2.4600
 30
0.0
 0
VERTEX
 8
WIRE
 10
  3.6600
 20
  2.4600
 30
0.0
 0
SEQEND
 8
WIRE
 0
POLYLINE
 8
WIRE
 66
1
 70
1
 10
0.0
 20
0.0
 30
0.0
 40
  0.0200
 41
  0.0200
 0
VERTEX
 8
WIRE
 10
  3.6500
 20
  2.4600
 30
0.0
 42
1.0
 0
VERTEX
 8
WIRE
 10
  3.6700
 20
  2.4600
 30
0.0
 42
1.0
 0
SEQEND
 8
WIRE
 0
POLYLINE
 8
WIRE
 66
1
 10
0.0
 20
0.0
 30
0.0
 0
VERTEX
 8
WIRE
 10
  2.6800
 20
  1.9200
 30
0.0
 0
VERTEX
 8
WIRE
 10
  2.6800
 20
  2.4600
 30
0.0
 0
SEQEND
 8
WIRE
 0
POLYLINE
 8
WIRE
 66
1
 10
0.0
 20
0.0
 30
0.0
 0
VERTEX
 8
WIRE
 10
  3.6600
 20
  2.4600
 30
0.0
 0
VERTEX
 8
WIRE
 10
  4.8000
 20
  2.4600
 30
0.0
 0
SEQEND
 8
WIRE
 0
POLYLINE
 8
WIRE
 66
1
 10
0.0
 20
0.0
 30
0.0
 0
VERTEX
 8
WIRE
 10
  4.8000
 20
  2.4700
 30
0.0
 0
VERTEX
 8
WIRE
 10
  4.7900
 20
  2.4700
 30
0.0
 0
SEQEND
 8
WIRE
 0
POLYLINE
 8
WIRE
 66
1
 10
0.0
 20
0.0
 30
0.0
 0
VERTEX
 8
WIRE
 10
  4.8000
 20
  2.4600
 30
0.0
 0
VERTEX
 8
WIRE
 10
  4.8000
 20
  2.4700
 30
0.0
 0
SEQEND
 8
WIRE
 0
POLYLINE
 8
WIRE
 66
1
 10
0.0
 20
0.0
 30
0.0
 0
VERTEX
 8
WIRE
 10
  5.3100
 20
  2.3800
 30
0.0
 0
VERTEX
 8
WIRE
 10
  6.6700
 20
  2.3800
 30
0.0
 0
SEQEND
 8
WIRE
 0
POLYLINE
 8
WIRE
 66
1
 10
0.0
 20
0.0
 30
0.0
 0
VERTEX
 8
WIRE
 10
  7.0700
 20
  2.2800
 30
0.0
 0
VERTEX
 8
WIRE
 10
  7.0700
 20
  0.7800
 30
0.0
 0
SEQEND
 8
WIRE
 0
POLYLINE
 8
WIRE
 66
1
 10
0.0
 20
0.0
 30
0.0
 0
VERTEX
 8
WIRE
 10
  8.2700
 20
  1.8800
 30
0.0
 0
VERTEX
 8
WIRE
 10
  8.2700
 20
  1.6800
 30
0.0
 0
SEQEND
 8
WIRE
 0
POLYLINE
 8
WIRE
 66
1
 70
1
 10
0.0
 20
0.0
 30
0.0
 40
  0.0200
 41
  0.0200
 0
VERTEX
 8
WIRE
 10
  8.2600
 20
  1.6800
 30
0.0
 42
1.0
 0
VERTEX
 8
WIRE
 10
  8.2800
 20
  1.6800
 30
0.0
 42
1.0
 0
SEQEND
 8
WIRE
 0
POLYLINE
 8
WIRE
 66
1
 10
0.0
 20
0.0
 30
0.0
 0
VERTEX
 8
WIRE
 10
  8.2700
 20
  1.6800
 30
0.0
 0
VERTEX
 8
WIRE
 10
  7.4700
 20
  1.6800
 30
0.0
 0
SEQEND
 8
WIRE
 0
POLYLINE
 8
WIRE
 66
1
 10
0.0
 20
0.0
 30
0.0
 0
VERTEX
 8
WIRE
 10
  7.4700
 20
  1.6800
 30
0.0
 0
VERTEX
 8
WIRE
 10
  7.4700
 20
  0.3400
 30
0.0
 0
SEQEND
 8
WIRE
 0
POLYLINE
 8
WIRE
 66
1
 10
0.0
 20
0.0
 30
0.0
 0
VERTEX
 8
WIRE
 10
  8.2700
 20
  1.6800
 30
0.0
 0
VERTEX
 8
WIRE
 10
  8.2700
 20
  1.4800
 30
0.0
 0
SEQEND
 8
WIRE
 0
POLYLINE
 8
WIRE
 66
1
 10
0.0
 20
0.0
 30
0.0
 0
VERTEX
 8
WIRE
 10
  5.7700
 20
  1.5800
 30
0.0
 0
VERTEX
 8
WIRE
 10
  5.7700
 20
  0.7800
 30
0.0
 0
SEQEND
 8
WIRE
 0
POLYLINE
 8
WIRE
 66
1
 10
0.0
 20
0.0
 30
0.0
 0
VERTEX
 8
WIRE
 10
  8.2700
 20
  1.0800
 30
0.0
 0
VERTEX
 8
WIRE
 10
  8.2700
 20
  0.7800
 30
0.0
 0
SEQEND
 8
WIRE
 0
POLYLINE
 8
WIRE
 66
1
 10
0.0
 20
0.0
 30
0.0
 0
VERTEX
 8
WIRE
 10
  5.7700
 20
  0.7800
 30
0.0
 0
VERTEX
 8
WIRE
 10
  7.0700
 20
  0.7800
 30
0.0
 0
SEQEND
 8
WIRE
 0
POLYLINE
 8
WIRE
 66
1
 10
0.0
 20
0.0
 30
0.0
 0
VERTEX
 8
WIRE
 10
  7.0700
 20
  0.7800
 30
0.0
 0
VERTEX
 8
WIRE
 10
  8.2700
 20
  0.7800
 30
0.0
 0
SEQEND
 8
WIRE
 0
POLYLINE
 8
WIRE
 66
1
 70
1
 10
0.0
 20
0.0
 30
0.0
 40
  0.0200
 41
  0.0200
 0
VERTEX
 8
WIRE
 10
  7.0600
 20
  0.7800
 30
0.0
 42
1.0
 0
VERTEX
 8
WIRE
 10
  7.0800
 20
  0.7800
 30
0.0
 42
1.0
 0
SEQEND
 8
WIRE
 0
POLYLINE
 8
WIRE
 66
1
 70
1
 10
0.0
 20
0.0
 30
0.0
 40
  0.0200
 41
  0.0200
 0
VERTEX
 8
WIRE
 10
  8.2600
 20
  0.7800
 30
0.0
 42
1.0
 0
VERTEX
 8
WIRE
 10
  8.2800
 20
  0.7800
 30
0.0
 42
1.0
 0
SEQEND
 8
WIRE
 0
POLYLINE
 8
WIRE
 66
1
 10
0.0
 20
0.0
 30
0.0
 0
VERTEX
 8
WIRE
 10
  8.2700
 20
  0.7800
 30
0.0
 0
VERTEX
 8
WIRE
 10
  9.1700
 20
  0.7800
 30
0.0
 0
SEQEND
 8
WIRE
 0
POLYLINE
 8
WIRE
 66
1
 10
0.0
 20
0.0
 30
0.0
 0
VERTEX
 8
WIRE
 10
  8.2700
 20
  0.7800
 30
0.0
 0
VERTEX
 8
WIRE
 10
  8.2700
 20
  0.5800
 30
0.0
 0
SEQEND
 8
WIRE
 0
POLYLINE
 8
WIRE
 66
1
 10
0.0
 20
0.0
 30
0.0
 0
VERTEX
 8
WIRE
 10
  7.4700
 20
  0.3400
 30
0.0
 0
VERTEX
 8
WIRE
 10
  0.3200
 20
  0.3400
 30
0.0
 0
SEQEND
 8
WIRE
 0
POLYLINE
 8
PARTS
 66
1
 10
0.0
 20
0.0
 30
0.0
 0
VERTEX
 8
PARTS
 10
  0.3300
 20
  6.5600
 30
0.0
 0
VERTEX
 8
PARTS
 10
  0.5300
 20
  6.5600
 30
0.0
 0
SEQEND
 8
PARTS
 0
POLYLINE
 8
PARTS
 66
1
 10
0.0
 20
0.0
 30
0.0
 0
VERTEX
 8
PARTS
 10
  0.3600
 20
  6.5300
 30
0.0
 0
VERTEX
 8
PARTS
 10
  0.5000
 20
  6.5300
 30
0.0
 0
SEQEND
 8
PARTS
 0
POLYLINE
 8
PARTS
 66
1
 10
0.0
 20
0.0
 30
0.0
 0
VERTEX
 8
PARTS
 10
  0.4700
 20
  6.5000
 30
0.0
 0
VERTEX
 8
PARTS
 10
  0.3900
 20
  6.5000
 30
0.0
 0
SEQEND
 8
PARTS
 0
POLYLINE
 8
PARTS
 66
1
 10
0.0
 20
0.0
 30
0.0
 0
VERTEX
 8
PARTS
 10
  0.4200
 20
  6.4700
 30
0.0
 0
VERTEX
 8
PARTS
 10
  0.4400
 20
  6.4700
 30
0.0
 0
SEQEND
 8
PARTS
 0
POLYLINE
 8
PARTS
 66
1
 10
0.0
 20
0.0
 30
0.0
 0
VERTEX
 8
PARTS
 10
  1.0100
 20
  5.9500
 30
0.0
 0
VERTEX
 8
PARTS
 10
  1.2100
 20
  5.9500
 30
0.0
 0
SEQEND
 8
PARTS
 0
POLYLINE
 8
PARTS
 66
1
 10
0.0
 20
0.0
 30
0.0
 0
VERTEX
 8
PARTS
 10
  1.0400
 20
  5.9200
 30
0.0
 0
VERTEX
 8
PARTS
 10
  1.1800
 20
  5.9200
 30
0.0
 0
SEQEND
 8
PARTS
 0
POLYLINE
 8
PARTS
 66
1
 10
0.0
 20
0.0
 30
0.0
 0
VERTEX
 8
PARTS
 10
  1.1500
 20
  5.8900
 30
0.0
 0
VERTEX
 8
PARTS
 10
  1.0700
 20
  5.8900
 30
0.0
 0
SEQEND
 8
PARTS
 0
POLYLINE
 8
PARTS
 66
1
 10
0.0
 20
0.0
 30
0.0
 0
VERTEX
 8
PARTS
 10
  1.1000
 20
  5.8600
 30
0.0
 0
VERTEX
 8
PARTS
 10
  1.1200
 20
  5.8600
 30
0.0
 0
SEQEND
 8
PARTS
 0
POLYLINE
 8
PARTS
 66
1
 10
0.0
 20
0.0
 30
0.0
 0
VERTEX
 8
PARTS
 10
  7.2800
 20
  4.3200
 30
0.0
 0
VERTEX
 8
PARTS
 10
  7.4800
 20
  4.3200
 30
0.0
 0
SEQEND
 8
PARTS
 0
POLYLINE
 8
PARTS
 66
1
 10
0.0
 20
0.0
 30
0.0
 0
VERTEX
 8
PARTS
 10
  7.3100
 20
  4.2900
 30
0.0
 0
VERTEX
 8
PARTS
 10
  7.4500
 20
  4.2900
 30
0.0
 0
SEQEND
 8
PARTS
 0
POLYLINE
 8
PARTS
 66
1
 10
0.0
 20
0.0
 30
0.0
 0
VERTEX
 8
PARTS
 10
  7.4200
 20
  4.2600
 30
0.0
 0
VERTEX
 8
PARTS
 10
  7.3400
 20
  4.2600
 30
0.0
 0
SEQEND
 8
PARTS
 0
POLYLINE
 8
PARTS
 66
1
 10
0.0
 20
0.0
 30
0.0
 0
VERTEX
 8
PARTS
 10
  7.3700
 20
  4.2300
 30
0.0
 0
VERTEX
 8
PARTS
 10
  7.3900
 20
  4.2300
 30
0.0
 0
SEQEND
 8
PARTS
 0
POLYLINE
 8
PARTS
 66
1
 10
0.0
 20
0.0
 30
0.0
 0
VERTEX
 8
PARTS
 10
  4.9700
 20
  3.4900
 30
0.0
 0
VERTEX
 8
PARTS
 10
  5.1700
 20
  3.4900
 30
0.0
 0
SEQEND
 8
PARTS
 0
POLYLINE
 8
PARTS
 66
1
 10
0.0
 20
0.0
 30
0.0
 0
VERTEX
 8
PARTS
 10
  5.0000
 20
  3.4600
 30
0.0
 0
VERTEX
 8
PARTS
 10
  5.1400
 20
  3.4600
 30
0.0
 0
SEQEND
 8
PARTS
 0
POLYLINE
 8
PARTS
 66
1
 10
0.0
 20
0.0
 30
0.0
 0
VERTEX
 8
PARTS
 10
  5.1100
 20
  3.4300
 30
0.0
 0
VERTEX
 8
PARTS
 10
  5.0300
 20
  3.4300
 30
0.0
 0
SEQEND
 8
PARTS
 0
POLYLINE
 8
PARTS
 66
1
 10
0.0
 20
0.0
 30
0.0
 0
VERTEX
 8
PARTS
 10
  5.0600
 20
  3.4000
 30
0.0
 0
VERTEX
 8
PARTS
 10
  5.0800
 20
  3.4000
 30
0.0
 0
SEQEND
 8
PARTS
 0
TEXT
 8
PARTTEXT
 10
  1.4800
 20
  2.7086
 30
0.0
 40
  0.0514
 1
Out1
 0
POLYLINE
 8
PARTS
 66
1
 10
0.0
 20
0.0
 30
0.0
 0
VERTEX
 8
PARTS
 10
  1.5800
 20
  2.6300
 30
0.0
 0
VERTEX
 8
PARTS
 10
  1.5800
 20
  2.5900
 30
0.0
 0
SEQEND
 8
PARTS
 0
POLYLINE
 8
PARTS
 66
1
 70
1
 10
0.0
 20
0.0
 30
0.0
 0
VERTEX
 8
PARTS
 10
  1.6100
 20
  2.6600
 30
0.0
 42
  0.0985
 0
VERTEX
 8
PARTS
 10
  1.6077
 20
  2.6715
 30
0.0
 42
  0.0985
 0
VERTEX
 8
PARTS
 10
  1.6012
 20
  2.6812
 30
0.0
 42
  0.0985
 0
VERTEX
 8
PARTS
 10
  1.5915
 20
  2.6877
 30
0.0
 42
  0.0985
 0
VERTEX
 8
PARTS
 10
  1.5800
 20
  2.6900
 30
0.0
 42
  0.0985
 0
VERTEX
 8
PARTS
 10
  1.5685
 20
  2.6877
 30
0.0
 42
  0.0985
 0
VERTEX
 8
PARTS
 10
  1.5588
 20
  2.6812
 30
0.0
 42
  0.0985
 0
VERTEX
 8
PARTS
 10
  1.5523
 20
  2.6715
 30
0.0
 42
  0.0985
 0
VERTEX
 8
PARTS
 10
  1.5500
 20
  2.6600
 30
0.0
 42
  0.0985
 0
VERTEX
 8
PARTS
 10
  1.5523
 20
  2.6485
 30
0.0
 42
  0.0985
 0
VERTEX
 8
PARTS
 10
  1.5588
 20
  2.6388
 30
0.0
 42
  0.0985
 0
VERTEX
 8
PARTS
 10
  1.5685
 20
  2.6323
 30
0.0
 42
  0.0985
 0
VERTEX
 8
PARTS
 10
  1.5800
 20
  2.6300
 30
0.0
 42
  0.0985
 0
VERTEX
 8
PARTS
 10
  1.5915
 20
  2.6323
 30
0.0
 42
  0.0985
 0
VERTEX
 8
PARTS
 10
  1.6012
 20
  2.6388
 30
0.0
 42
  0.0985
 0
VERTEX
 8
PARTS
 10
  1.6077
 20
  2.6485
 30
0.0
 42
  0.0985
 0
SEQEND
 8
PARTS
 0
TEXT
 8
PARTTEXT
 10
  2.5800
 20
  2.7086
 30
0.0
 40
  0.0514
 1
Out2
 0
POLYLINE
 8
PARTS
 66
1
 10
0.0
 20
0.0
 30
0.0
 0
VERTEX
 8
PARTS
 10
  2.6800
 20
  2.6300
 30
0.0
 0
VERTEX
 8
PARTS
 10
  2.6800
 20
  2.5900
 30
0.0
 0
SEQEND
 8
PARTS
 0
POLYLINE
 8
PARTS
 66
1
 70
1
 10
0.0
 20
0.0
 30
0.0
 0
VERTEX
 8
PARTS
 10
  2.7100
 20
  2.6600
 30
0.0
 42
  0.0985
 0
VERTEX
 8
PARTS
 10
  2.7077
 20
  2.6715
 30
0.0
 42
  0.0985
 0
VERTEX
 8
PARTS
 10
  2.7012
 20
  2.6812
 30
0.0
 42
  0.0985
 0
VERTEX
 8
PARTS
 10
  2.6915
 20
  2.6877
 30
0.0
 42
  0.0985
 0
VERTEX
 8
PARTS
 10
  2.6800
 20
  2.6900
 30
0.0
 42
  0.0985
 0
VERTEX
 8
PARTS
 10
  2.6685
 20
  2.6877
 30
0.0
 42
  0.0985
 0
VERTEX
 8
PARTS
 10
  2.6588
 20
  2.6812
 30
0.0
 42
  0.0985
 0
VERTEX
 8
PARTS
 10
  2.6523
 20
  2.6715
 30
0.0
 42
  0.0985
 0
VERTEX
 8
PARTS
 10
  2.6500
 20
  2.6600
 30
0.0
 42
  0.0985
 0
VERTEX
 8
PARTS
 10
  2.6523
 20
  2.6485
 30
0.0
 42
  0.0985
 0
VERTEX
 8
PARTS
 10
  2.6588
 20
  2.6388
 30
0.0
 42
  0.0985
 0
VERTEX
 8
PARTS
 10
  2.6685
 20
  2.6323
 30
0.0
 42
  0.0985
 0
VERTEX
 8
PARTS
 10
  2.6800
 20
  2.6300
 30
0.0
 42
  0.0985
 0
VERTEX
 8
PARTS
 10
  2.6915
 20
  2.6323
 30
0.0
 42
  0.0985
 0
VERTEX
 8
PARTS
 10
  2.7012
 20
  2.6388
 30
0.0
 42
  0.0985
 0
VERTEX
 8
PARTS
 10
  2.7077
 20
  2.6485
 30
0.0
 42
  0.0985
 0
SEQEND
 8
PARTS
 0
TEXT
 8
PARTTEXT
 10
  3.5600
 20
  2.7086
 30
0.0
 40
  0.0514
 1
Out3
 0
POLYLINE
 8
PARTS
 66
1
 10
0.0
 20
0.0
 30
0.0
 0
VERTEX
 8
PARTS
 10
  3.6600
 20
  2.6300
 30
0.0
 0
VERTEX
 8
PARTS
 10
  3.6600
 20
  2.5900
 30
0.0
 0
SEQEND
 8
PARTS
 0
POLYLINE
 8
PARTS
 66
1
 70
1
 10
0.0
 20
0.0
 30
0.0
 0
VERTEX
 8
PARTS
 10
  3.6900
 20
  2.6600
 30
0.0
 42
  0.0985
 0
VERTEX
 8
PARTS
 10
  3.6877
 20
  2.6715
 30
0.0
 42
  0.0985
 0
VERTEX
 8
PARTS
 10
  3.6812
 20
  2.6812
 30
0.0
 42
  0.0985
 0
VERTEX
 8
PARTS
 10
  3.6715
 20
  2.6877
 30
0.0
 42
  0.0985
 0
VERTEX
 8
PARTS
 10
  3.6600
 20
  2.6900
 30
0.0
 42
  0.0985
 0
VERTEX
 8
PARTS
 10
  3.6485
 20
  2.6877
 30
0.0
 42
  0.0985
 0
VERTEX
 8
PARTS
 10
  3.6388
 20
  2.6812
 30
0.0
 42
  0.0985
 0
VERTEX
 8
PARTS
 10
  3.6323
 20
  2.6715
 30
0.0
 42
  0.0985
 0
VERTEX
 8
PARTS
 10
  3.6300
 20
  2.6600
 30
0.0
 42
  0.0985
 0
VERTEX
 8
PARTS
 10
  3.6323
 20
  2.6485
 30
0.0
 42
  0.0985
 0
VERTEX
 8
PARTS
 10
  3.6388
 20
  2.6388
 30
0.0
 42
  0.0985
 0
VERTEX
 8
PARTS
 10
  3.6485
 20
  2.6323
 30
0.0
 42
  0.0985
 0
VERTEX
 8
PARTS
 10
  3.6600
 20
  2.6300
 30
0.0
 42
  0.0985
 0
VERTEX
 8
PARTS
 10
  3.6715
 20
  2.6323
 30
0.0
 42
  0.0985
 0
VERTEX
 8
PARTS
 10
  3.6812
 20
  2.6388
 30
0.0
 42
  0.0985
 0
VERTEX
 8
PARTS
 10
  3.6877
 20
  2.6485
 30
0.0
 42
  0.0985
 0
SEQEND
 8
PARTS
 0
TEXT
 8
PARTTEXT
 10
  4.6900
 20
  2.7186
 30
0.0
 40
  0.0514
 1
Out4
 0
POLYLINE
 8
PARTS
 66
1
 10
0.0
 20
0.0
 30
0.0
 0
VERTEX
 8
PARTS
 10
  4.7900
 20
  2.6400
 30
0.0
 0
VERTEX
 8
PARTS
 10
  4.7900
 20
  2.6000
 30
0.0
 0
SEQEND
 8
PARTS
 0
POLYLINE
 8
PARTS
 66
1
 70
1
 10
0.0
 20
0.0
 30
0.0
 0
VERTEX
 8
PARTS
 10
  4.8200
 20
  2.6700
 30
0.0
 42
  0.0985
 0
VERTEX
 8
PARTS
 10
  4.8177
 20
  2.6815
 30
0.0
 42
  0.0985
 0
VERTEX
 8
PARTS
 10
  4.8112
 20
  2.6912
 30
0.0
 42
  0.0985
 0
VERTEX
 8
PARTS
 10
  4.8015
 20
  2.6977
 30
0.0
 42
  0.0985
 0
VERTEX
 8
PARTS
 10
  4.7900
 20
  2.7000
 30
0.0
 42
  0.0985
 0
VERTEX
 8
PARTS
 10
  4.7785
 20
  2.6977
 30
0.0
 42
  0.0985
 0
VERTEX
 8
PARTS
 10
  4.7688
 20
  2.6912
 30
0.0
 42
  0.0985
 0
VERTEX
 8
PARTS
 10
  4.7623
 20
  2.6815
 30
0.0
 42
  0.0985
 0
VERTEX
 8
PARTS
 10
  4.7600
 20
  2.6700
 30
0.0
 42
  0.0985
 0
VERTEX
 8
PARTS
 10
  4.7623
 20
  2.6585
 30
0.0
 42
  0.0985
 0
VERTEX
 8
PARTS
 10
  4.7688
 20
  2.6488
 30
0.0
 42
  0.0985
 0
VERTEX
 8
PARTS
 10
  4.7785
 20
  2.6423
 30
0.0
 42
  0.0985
 0
VERTEX
 8
PARTS
 10
  4.7900
 20
  2.6400
 30
0.0
 42
  0.0985
 0
VERTEX
 8
PARTS
 10
  4.8015
 20
  2.6423
 30
0.0
 42
  0.0985
 0
VERTEX
 8
PARTS
 10
  4.8112
 20
  2.6488
 30
0.0
 42
  0.0985
 0
VERTEX
 8
PARTS
 10
  4.8177
 20
  2.6585
 30
0.0
 42
  0.0985
 0
SEQEND
 8
PARTS
 0
POLYLINE
 8
PARTS
 66
1
 10
0.0
 20
0.0
 30
0.0
 0
VERTEX
 8
PARTS
 10
  2.5800
 20
  1.9200
 30
0.0
 0
VERTEX
 8
PARTS
 10
  2.7800
 20
  1.9200
 30
0.0
 0
SEQEND
 8
PARTS
 0
POLYLINE
 8
PARTS
 66
1
 10
0.0
 20
0.0
 30
0.0
 0
VERTEX
 8
PARTS
 10
  2.6100
 20
  1.8900
 30
0.0
 0
VERTEX
 8
PARTS
 10
  2.7500
 20
  1.8900
 30
0.0
 0
SEQEND
 8
PARTS
 0
POLYLINE
 8
PARTS
 66
1
 10
0.0
 20
0.0
 30
0.0
 0
VERTEX
 8
PARTS
 10
  2.7200
 20
  1.8600
 30
0.0
 0
VERTEX
 8
PARTS
 10
  2.6400
 20
  1.8600
 30
0.0
 0
SEQEND
 8
PARTS
 0
POLYLINE
 8
PARTS
 66
1
 10
0.0
 20
0.0
 30
0.0
 0
VERTEX
 8
PARTS
 10
  2.6700
 20
  1.8300
 30
0.0
 0
VERTEX
 8
PARTS
 10
  2.6900
 20
  1.8300
 30
0.0
 0
SEQEND
 8
PARTS
 0
POLYLINE
 8
PARTS
 66
1
 10
0.0
 20
0.0
 30
0.0
 0
VERTEX
 8
PARTS
 10
  8.1700
 20
  0.5800
 30
0.0
 0
VERTEX
 8
PARTS
 10
  8.3700
 20
  0.5800
 30
0.0
 0
SEQEND
 8
PARTS
 0
POLYLINE
 8
PARTS
 66
1
 10
0.0
 20
0.0
 30
0.0
 0
VERTEX
 8
PARTS
 10
  8.2000
 20
  0.5500
 30
0.0
 0
VERTEX
 8
PARTS
 10
  8.3400
 20
  0.5500
 30
0.0
 0
SEQEND
 8
PARTS
 0
POLYLINE
 8
PARTS
 66
1
 10
0.0
 20
0.0
 30
0.0
 0
VERTEX
 8
PARTS
 10
  8.3100
 20
  0.5200
 30
0.0
 0
VERTEX
 8
PARTS
 10
  8.2300
 20
  0.5200
 30
0.0
 0
SEQEND
 8
PARTS
 0
POLYLINE
 8
PARTS
 66
1
 10
0.0
 20
0.0
 30
0.0
 0
VERTEX
 8
PARTS
 10
  8.2600
 20
  0.4900
 30
0.0
 0
VERTEX
 8
PARTS
 10
  8.2800
 20
  0.4900
 30
0.0
 0
SEQEND
 8
PARTS
 0
TEXT
 8
COMMENTS
 10
  7.8400
 20
  4.4150
 30
0.0
 40
  0.1650
 1
DAC
 0
TEXT
 8
COMMENTS
 10
  1.1600
 20
  5.2550
 30
0.0
 40
  0.1650
 1
SAR
 0
TEXT
 8
COMMENTS
 10
  7.9900
 20
  2.9150
 30
0.0
 40
  0.1650
 1
COMP
 0
POLYLINE
 8
COMMENTS
 66
1
 70
1
 10
0.0
 20
0.0
 30
0.0
 0
VERTEX
 8
COMMENTS
 10
  0.6800
 20
  7.1500
 30
0.0
 0
VERTEX
 8
COMMENTS
 10
  6.0100
 20
  7.1500
 30
0.0
 0
VERTEX
 8
COMMENTS
 10
  6.0100
 20
  3.2700
 30
0.0
 0
VERTEX
 8
COMMENTS
 10
  0.6800
 20
  3.2700
 30
0.0
 0
SEQEND
 8
COMMENTS
 0
POLYLINE
 8
COMMENTS
 66
1
 10
0.0
 20
0.0
 30
0.0
 0
VERTEX
 8
COMMENTS
 10
  9.2800
 20
  3.7000
 30
0.0
 0
VERTEX
 8
COMMENTS
 10
  6.2300
 20
  3.7000
 30
0.0
 0
VERTEX
 8
COMMENTS
 10
  6.2300
 20
  3.0600
 30
0.0
 0
VERTEX
 8
COMMENTS
 10
  5.1300
 20
  3.0600
 30
0.0
 0
VERTEX
 8
COMMENTS
 10
  5.1300
 20
  0.4100
 30
0.0
 0
VERTEX
 8
COMMENTS
 10
  9.4500
 20
  0.4100
 30
0.0
 0
VERTEX
 8
COMMENTS
 10
  9.4500
 20
  3.7000
 30
0.0
 0
VERTEX
 8
COMMENTS
 10
  9.2800
 20
  3.7000
 30
0.0
 0
SEQEND
 8
COMMENTS
 0
POLYLINE
 8
COMMENTS
 66
1
 70
1
 10
0.0
 20
0.0
 30
0.0
 0
VERTEX
 8
COMMENTS
 10
  6.1700
 20
  6.5200
 30
0.0
 0
VERTEX
 8
COMMENTS
 10
  9.0000
 20
  6.5200
 30
0.0
 0
VERTEX
 8
COMMENTS
 10
  9.0000
 20
  4.1700
 30
0.0
 0
VERTEX
 8
COMMENTS
 10
  6.1700
 20
  4.1700
 30
0.0
 0
SEQEND
 8
COMMENTS
 0
ENDSEC
 0
EOF
